G75*
%MOIN*%
%OFA0B0*%
%FSLAX25Y25*%
%IPPOS*%
%LPD*%
%AMOC8*
5,1,8,0,0,1.08239X$1,22.5*
%
%ADD10C,0.00800*%
%ADD11C,0.00500*%
%ADD12C,0.10000*%
%ADD13R,0.09200X0.05200*%
%ADD14R,0.09061X0.14573*%
%ADD15R,0.08274X0.06306*%
%ADD16R,0.06699X0.07487*%
%ADD17R,0.03550X0.05124*%
%ADD18C,0.05400*%
%ADD19C,0.06896*%
%ADD20OC8,0.08274*%
%ADD21C,0.07800*%
%ADD22R,0.04337X0.05912*%
%ADD23R,0.05124X0.03550*%
%ADD24R,0.07487X0.07093*%
%ADD25C,0.06400*%
%ADD26R,0.09900X0.09900*%
%ADD27C,0.09900*%
%ADD28R,0.07487X0.06699*%
%ADD29R,0.06306X0.08274*%
%ADD30C,0.16998*%
D10*
X0012962Y0001400D02*
X0186190Y0001400D01*
X0186475Y0001403D01*
X0186761Y0001414D01*
X0187046Y0001431D01*
X0187330Y0001455D01*
X0187614Y0001486D01*
X0187897Y0001524D01*
X0188178Y0001569D01*
X0188459Y0001620D01*
X0188739Y0001678D01*
X0189017Y0001743D01*
X0189293Y0001815D01*
X0189567Y0001893D01*
X0189840Y0001978D01*
X0190110Y0002070D01*
X0190378Y0002168D01*
X0190644Y0002272D01*
X0190907Y0002383D01*
X0191167Y0002500D01*
X0191425Y0002623D01*
X0191679Y0002753D01*
X0191930Y0002889D01*
X0192178Y0003030D01*
X0192422Y0003178D01*
X0192663Y0003331D01*
X0192899Y0003491D01*
X0193132Y0003656D01*
X0193361Y0003826D01*
X0193586Y0004002D01*
X0193806Y0004184D01*
X0194022Y0004370D01*
X0194233Y0004562D01*
X0194440Y0004759D01*
X0194642Y0004961D01*
X0194839Y0005168D01*
X0195031Y0005379D01*
X0195217Y0005595D01*
X0195399Y0005815D01*
X0195575Y0006040D01*
X0195745Y0006269D01*
X0195910Y0006502D01*
X0196070Y0006738D01*
X0196223Y0006979D01*
X0196371Y0007223D01*
X0196512Y0007471D01*
X0196648Y0007722D01*
X0196778Y0007976D01*
X0196901Y0008234D01*
X0197018Y0008494D01*
X0197129Y0008757D01*
X0197233Y0009023D01*
X0197331Y0009291D01*
X0197423Y0009561D01*
X0197508Y0009834D01*
X0197586Y0010108D01*
X0197658Y0010384D01*
X0197723Y0010662D01*
X0197781Y0010942D01*
X0197832Y0011223D01*
X0197877Y0011504D01*
X0197915Y0011787D01*
X0197946Y0012071D01*
X0197970Y0012355D01*
X0197987Y0012640D01*
X0197998Y0012926D01*
X0198001Y0013211D01*
X0198001Y0029085D01*
X0174879Y0029085D01*
X0174879Y0092077D01*
X0198001Y0092077D01*
X0198001Y0186439D01*
X0197963Y0186439D02*
X0197963Y0013211D01*
X0197963Y0012924D01*
X0197971Y0012637D01*
X0197985Y0012351D01*
X0198007Y0012065D01*
X0198035Y0011780D01*
X0198071Y0011495D01*
X0198113Y0011211D01*
X0198163Y0010929D01*
X0198219Y0010647D01*
X0198283Y0010368D01*
X0198353Y0010090D01*
X0198430Y0009813D01*
X0198513Y0009539D01*
X0198604Y0009267D01*
X0198701Y0008997D01*
X0198804Y0008729D01*
X0198915Y0008464D01*
X0199031Y0008202D01*
X0199154Y0007943D01*
X0199284Y0007687D01*
X0199419Y0007435D01*
X0199561Y0007185D01*
X0199709Y0006939D01*
X0199863Y0006697D01*
X0200022Y0006459D01*
X0200188Y0006225D01*
X0200359Y0005995D01*
X0200536Y0005769D01*
X0200718Y0005547D01*
X0200906Y0005331D01*
X0201099Y0005118D01*
X0201297Y0004911D01*
X0201500Y0004708D01*
X0201708Y0004511D01*
X0201921Y0004319D01*
X0202139Y0004132D01*
X0202361Y0003950D01*
X0202587Y0003774D01*
X0202818Y0003603D01*
X0203052Y0003439D01*
X0203291Y0003280D01*
X0203534Y0003127D01*
X0203780Y0002979D01*
X0204030Y0002839D01*
X0204283Y0002704D01*
X0204539Y0002575D01*
X0204799Y0002453D01*
X0205061Y0002337D01*
X0205327Y0002228D01*
X0205594Y0002125D01*
X0205865Y0002029D01*
X0206137Y0001939D01*
X0206412Y0001856D01*
X0206688Y0001780D01*
X0206967Y0001711D01*
X0207247Y0001649D01*
X0207528Y0001593D01*
X0207811Y0001544D01*
X0208094Y0001503D01*
X0208379Y0001468D01*
X0208665Y0001441D01*
X0208951Y0001420D01*
X0209237Y0001406D01*
X0209524Y0001400D01*
X0382753Y0001400D01*
X0383038Y0001403D01*
X0383324Y0001414D01*
X0383609Y0001431D01*
X0383893Y0001455D01*
X0384177Y0001486D01*
X0384460Y0001524D01*
X0384741Y0001569D01*
X0385022Y0001620D01*
X0385302Y0001678D01*
X0385580Y0001743D01*
X0385856Y0001815D01*
X0386130Y0001893D01*
X0386403Y0001978D01*
X0386673Y0002070D01*
X0386941Y0002168D01*
X0387207Y0002272D01*
X0387470Y0002383D01*
X0387730Y0002500D01*
X0387988Y0002623D01*
X0388242Y0002753D01*
X0388493Y0002889D01*
X0388741Y0003030D01*
X0388985Y0003178D01*
X0389226Y0003331D01*
X0389462Y0003491D01*
X0389695Y0003656D01*
X0389924Y0003826D01*
X0390149Y0004002D01*
X0390369Y0004184D01*
X0390585Y0004370D01*
X0390796Y0004562D01*
X0391003Y0004759D01*
X0391205Y0004961D01*
X0391402Y0005168D01*
X0391594Y0005379D01*
X0391780Y0005595D01*
X0391962Y0005815D01*
X0392138Y0006040D01*
X0392308Y0006269D01*
X0392473Y0006502D01*
X0392633Y0006738D01*
X0392786Y0006979D01*
X0392934Y0007223D01*
X0393075Y0007471D01*
X0393211Y0007722D01*
X0393341Y0007976D01*
X0393464Y0008234D01*
X0393581Y0008494D01*
X0393692Y0008757D01*
X0393796Y0009023D01*
X0393894Y0009291D01*
X0393986Y0009561D01*
X0394071Y0009834D01*
X0394149Y0010108D01*
X0394221Y0010384D01*
X0394286Y0010662D01*
X0394344Y0010942D01*
X0394395Y0011223D01*
X0394440Y0011504D01*
X0394478Y0011787D01*
X0394509Y0012071D01*
X0394533Y0012355D01*
X0394550Y0012640D01*
X0394561Y0012926D01*
X0394564Y0013211D01*
X0394564Y0029085D01*
X0371442Y0029085D01*
X0371442Y0092077D01*
X0394564Y0092077D01*
X0394564Y0186439D01*
X0394564Y0186440D02*
X0394559Y0186723D01*
X0394547Y0187007D01*
X0394528Y0187290D01*
X0394503Y0187573D01*
X0394471Y0187855D01*
X0394432Y0188136D01*
X0394386Y0188417D01*
X0394333Y0188696D01*
X0394274Y0188973D01*
X0394207Y0189249D01*
X0394135Y0189524D01*
X0394055Y0189796D01*
X0393969Y0190067D01*
X0393877Y0190335D01*
X0393778Y0190602D01*
X0393673Y0190865D01*
X0393561Y0191126D01*
X0393443Y0191385D01*
X0393319Y0191640D01*
X0393189Y0191892D01*
X0393053Y0192141D01*
X0392910Y0192387D01*
X0392762Y0192629D01*
X0392608Y0192868D01*
X0392449Y0193103D01*
X0392283Y0193333D01*
X0392112Y0193560D01*
X0391936Y0193783D01*
X0391755Y0194001D01*
X0391568Y0194215D01*
X0391376Y0194424D01*
X0391179Y0194628D01*
X0390977Y0194828D01*
X0390770Y0195023D01*
X0390559Y0195213D01*
X0390343Y0195397D01*
X0390123Y0195576D01*
X0389899Y0195750D01*
X0389670Y0195919D01*
X0389438Y0196082D01*
X0389201Y0196239D01*
X0388961Y0196390D01*
X0388717Y0196536D01*
X0388470Y0196675D01*
X0388220Y0196809D01*
X0387966Y0196937D01*
X0387709Y0197058D01*
X0387450Y0197173D01*
X0387188Y0197282D01*
X0386923Y0197385D01*
X0386656Y0197481D01*
X0386386Y0197570D01*
X0386115Y0197653D01*
X0385841Y0197730D01*
X0385566Y0197799D01*
X0385289Y0197863D01*
X0385011Y0197919D01*
X0384731Y0197969D01*
X0384451Y0198012D01*
X0384169Y0198048D01*
X0383887Y0198077D01*
X0383604Y0198099D01*
X0383320Y0198115D01*
X0383036Y0198124D01*
X0382752Y0198126D01*
X0382753Y0198125D02*
X0209524Y0198125D01*
X0209524Y0198087D02*
X0382753Y0198087D01*
X0382753Y0198088D02*
X0383038Y0198091D01*
X0383324Y0198102D01*
X0383609Y0198119D01*
X0383893Y0198143D01*
X0384177Y0198174D01*
X0384460Y0198212D01*
X0384741Y0198257D01*
X0385022Y0198308D01*
X0385302Y0198366D01*
X0385580Y0198431D01*
X0385856Y0198503D01*
X0386130Y0198581D01*
X0386403Y0198666D01*
X0386673Y0198758D01*
X0386941Y0198856D01*
X0387207Y0198960D01*
X0387470Y0199071D01*
X0387730Y0199188D01*
X0387988Y0199311D01*
X0388242Y0199441D01*
X0388493Y0199577D01*
X0388741Y0199718D01*
X0388985Y0199866D01*
X0389226Y0200019D01*
X0389462Y0200179D01*
X0389695Y0200344D01*
X0389924Y0200514D01*
X0390149Y0200690D01*
X0390369Y0200872D01*
X0390585Y0201058D01*
X0390796Y0201250D01*
X0391003Y0201447D01*
X0391205Y0201649D01*
X0391402Y0201856D01*
X0391594Y0202067D01*
X0391780Y0202283D01*
X0391962Y0202503D01*
X0392138Y0202728D01*
X0392308Y0202957D01*
X0392473Y0203190D01*
X0392633Y0203426D01*
X0392786Y0203667D01*
X0392934Y0203911D01*
X0393075Y0204159D01*
X0393211Y0204410D01*
X0393341Y0204664D01*
X0393464Y0204922D01*
X0393581Y0205182D01*
X0393692Y0205445D01*
X0393796Y0205711D01*
X0393894Y0205979D01*
X0393986Y0206249D01*
X0394071Y0206522D01*
X0394149Y0206796D01*
X0394221Y0207072D01*
X0394286Y0207350D01*
X0394344Y0207630D01*
X0394395Y0207911D01*
X0394440Y0208192D01*
X0394478Y0208475D01*
X0394509Y0208759D01*
X0394533Y0209043D01*
X0394550Y0209328D01*
X0394561Y0209614D01*
X0394564Y0209899D01*
X0394564Y0225773D01*
X0371442Y0225773D01*
X0371442Y0288765D01*
X0394564Y0288765D01*
X0394564Y0383127D01*
X0394559Y0383410D01*
X0394547Y0383694D01*
X0394528Y0383977D01*
X0394503Y0384260D01*
X0394471Y0384542D01*
X0394432Y0384823D01*
X0394386Y0385104D01*
X0394333Y0385383D01*
X0394274Y0385660D01*
X0394207Y0385936D01*
X0394135Y0386211D01*
X0394055Y0386483D01*
X0393969Y0386754D01*
X0393877Y0387022D01*
X0393778Y0387289D01*
X0393673Y0387552D01*
X0393561Y0387813D01*
X0393443Y0388072D01*
X0393319Y0388327D01*
X0393189Y0388579D01*
X0393053Y0388828D01*
X0392910Y0389074D01*
X0392762Y0389316D01*
X0392608Y0389555D01*
X0392449Y0389790D01*
X0392283Y0390020D01*
X0392112Y0390247D01*
X0391936Y0390470D01*
X0391755Y0390688D01*
X0391568Y0390902D01*
X0391376Y0391111D01*
X0391179Y0391315D01*
X0390977Y0391515D01*
X0390770Y0391710D01*
X0390559Y0391900D01*
X0390343Y0392084D01*
X0390123Y0392263D01*
X0389899Y0392437D01*
X0389670Y0392606D01*
X0389438Y0392769D01*
X0389201Y0392926D01*
X0388961Y0393077D01*
X0388717Y0393223D01*
X0388470Y0393362D01*
X0388220Y0393496D01*
X0387966Y0393624D01*
X0387709Y0393745D01*
X0387450Y0393860D01*
X0387188Y0393969D01*
X0386923Y0394072D01*
X0386656Y0394168D01*
X0386386Y0394257D01*
X0386115Y0394340D01*
X0385841Y0394417D01*
X0385566Y0394486D01*
X0385289Y0394550D01*
X0385011Y0394606D01*
X0384731Y0394656D01*
X0384451Y0394699D01*
X0384169Y0394735D01*
X0383887Y0394764D01*
X0383604Y0394786D01*
X0383320Y0394802D01*
X0383036Y0394811D01*
X0382752Y0394813D01*
X0382753Y0394813D02*
X0209524Y0394813D01*
X0209244Y0394808D01*
X0208963Y0394796D01*
X0208683Y0394778D01*
X0208403Y0394753D01*
X0208124Y0394721D01*
X0207846Y0394682D01*
X0207568Y0394636D01*
X0207292Y0394584D01*
X0207018Y0394526D01*
X0206745Y0394460D01*
X0206473Y0394388D01*
X0206203Y0394310D01*
X0205936Y0394225D01*
X0205670Y0394133D01*
X0205407Y0394035D01*
X0205146Y0393931D01*
X0204888Y0393821D01*
X0204632Y0393704D01*
X0204379Y0393581D01*
X0204130Y0393452D01*
X0203883Y0393317D01*
X0203640Y0393177D01*
X0203401Y0393030D01*
X0203165Y0392878D01*
X0202932Y0392720D01*
X0202704Y0392556D01*
X0202480Y0392387D01*
X0202260Y0392213D01*
X0202044Y0392033D01*
X0201832Y0391848D01*
X0201625Y0391658D01*
X0201423Y0391463D01*
X0201225Y0391264D01*
X0201033Y0391059D01*
X0200845Y0390850D01*
X0200662Y0390637D01*
X0200485Y0390419D01*
X0200313Y0390197D01*
X0200146Y0389971D01*
X0199985Y0389741D01*
X0199830Y0389507D01*
X0199680Y0389269D01*
X0199536Y0389028D01*
X0199398Y0388783D01*
X0199266Y0388536D01*
X0199139Y0388285D01*
X0199019Y0388031D01*
X0198905Y0387774D01*
X0198798Y0387514D01*
X0198696Y0387252D01*
X0198601Y0386988D01*
X0198513Y0386722D01*
X0198431Y0386453D01*
X0198355Y0386182D01*
X0198286Y0385910D01*
X0198224Y0385636D01*
X0198168Y0385361D01*
X0198119Y0385084D01*
X0198076Y0384807D01*
X0198040Y0384528D01*
X0198011Y0384249D01*
X0197989Y0383969D01*
X0197974Y0383688D01*
X0197965Y0383407D01*
X0197963Y0383126D01*
X0197963Y0383127D02*
X0197963Y0209899D01*
X0198001Y0209899D02*
X0198001Y0225773D01*
X0174879Y0225773D01*
X0174879Y0288765D01*
X0198001Y0288765D01*
X0198001Y0383127D01*
X0198002Y0383127D02*
X0197997Y0383410D01*
X0197985Y0383694D01*
X0197966Y0383977D01*
X0197941Y0384260D01*
X0197909Y0384542D01*
X0197870Y0384823D01*
X0197824Y0385104D01*
X0197771Y0385383D01*
X0197712Y0385660D01*
X0197645Y0385936D01*
X0197573Y0386211D01*
X0197493Y0386483D01*
X0197407Y0386754D01*
X0197315Y0387022D01*
X0197216Y0387289D01*
X0197111Y0387552D01*
X0196999Y0387813D01*
X0196881Y0388072D01*
X0196757Y0388327D01*
X0196627Y0388579D01*
X0196491Y0388828D01*
X0196348Y0389074D01*
X0196200Y0389316D01*
X0196046Y0389555D01*
X0195887Y0389790D01*
X0195721Y0390020D01*
X0195550Y0390247D01*
X0195374Y0390470D01*
X0195193Y0390688D01*
X0195006Y0390902D01*
X0194814Y0391111D01*
X0194617Y0391315D01*
X0194415Y0391515D01*
X0194208Y0391710D01*
X0193997Y0391900D01*
X0193781Y0392084D01*
X0193561Y0392263D01*
X0193337Y0392437D01*
X0193108Y0392606D01*
X0192876Y0392769D01*
X0192639Y0392926D01*
X0192399Y0393077D01*
X0192155Y0393223D01*
X0191908Y0393362D01*
X0191658Y0393496D01*
X0191404Y0393624D01*
X0191147Y0393745D01*
X0190888Y0393860D01*
X0190626Y0393969D01*
X0190361Y0394072D01*
X0190094Y0394168D01*
X0189824Y0394257D01*
X0189553Y0394340D01*
X0189279Y0394417D01*
X0189004Y0394486D01*
X0188727Y0394550D01*
X0188449Y0394606D01*
X0188169Y0394656D01*
X0187889Y0394699D01*
X0187607Y0394735D01*
X0187325Y0394764D01*
X0187042Y0394786D01*
X0186758Y0394802D01*
X0186474Y0394811D01*
X0186190Y0394813D01*
X0012962Y0394813D01*
X0012961Y0394813D02*
X0012681Y0394808D01*
X0012400Y0394796D01*
X0012120Y0394778D01*
X0011840Y0394753D01*
X0011561Y0394721D01*
X0011283Y0394682D01*
X0011005Y0394636D01*
X0010729Y0394584D01*
X0010455Y0394526D01*
X0010182Y0394460D01*
X0009910Y0394388D01*
X0009640Y0394310D01*
X0009373Y0394225D01*
X0009107Y0394133D01*
X0008844Y0394035D01*
X0008583Y0393931D01*
X0008325Y0393821D01*
X0008069Y0393704D01*
X0007816Y0393581D01*
X0007567Y0393452D01*
X0007320Y0393317D01*
X0007077Y0393177D01*
X0006838Y0393030D01*
X0006602Y0392878D01*
X0006369Y0392720D01*
X0006141Y0392556D01*
X0005917Y0392387D01*
X0005697Y0392213D01*
X0005481Y0392033D01*
X0005269Y0391848D01*
X0005062Y0391658D01*
X0004860Y0391463D01*
X0004662Y0391264D01*
X0004470Y0391059D01*
X0004282Y0390850D01*
X0004099Y0390637D01*
X0003922Y0390419D01*
X0003750Y0390197D01*
X0003583Y0389971D01*
X0003422Y0389741D01*
X0003267Y0389507D01*
X0003117Y0389269D01*
X0002973Y0389028D01*
X0002835Y0388783D01*
X0002703Y0388536D01*
X0002576Y0388285D01*
X0002456Y0388031D01*
X0002342Y0387774D01*
X0002235Y0387514D01*
X0002133Y0387252D01*
X0002038Y0386988D01*
X0001950Y0386722D01*
X0001868Y0386453D01*
X0001792Y0386182D01*
X0001723Y0385910D01*
X0001661Y0385636D01*
X0001605Y0385361D01*
X0001556Y0385084D01*
X0001513Y0384807D01*
X0001477Y0384528D01*
X0001448Y0384249D01*
X0001426Y0383969D01*
X0001411Y0383688D01*
X0001402Y0383407D01*
X0001400Y0383126D01*
X0001401Y0383127D02*
X0001401Y0209899D01*
X0001401Y0209612D01*
X0001409Y0209325D01*
X0001423Y0209039D01*
X0001445Y0208753D01*
X0001473Y0208468D01*
X0001509Y0208183D01*
X0001551Y0207899D01*
X0001601Y0207617D01*
X0001657Y0207335D01*
X0001721Y0207056D01*
X0001791Y0206778D01*
X0001868Y0206501D01*
X0001951Y0206227D01*
X0002042Y0205955D01*
X0002139Y0205685D01*
X0002242Y0205417D01*
X0002353Y0205152D01*
X0002469Y0204890D01*
X0002592Y0204631D01*
X0002722Y0204375D01*
X0002857Y0204123D01*
X0002999Y0203873D01*
X0003147Y0203627D01*
X0003301Y0203385D01*
X0003460Y0203147D01*
X0003626Y0202913D01*
X0003797Y0202683D01*
X0003974Y0202457D01*
X0004156Y0202235D01*
X0004344Y0202019D01*
X0004537Y0201806D01*
X0004735Y0201599D01*
X0004938Y0201396D01*
X0005146Y0201199D01*
X0005359Y0201007D01*
X0005577Y0200820D01*
X0005799Y0200638D01*
X0006025Y0200462D01*
X0006256Y0200291D01*
X0006490Y0200127D01*
X0006729Y0199968D01*
X0006972Y0199815D01*
X0007218Y0199667D01*
X0007468Y0199527D01*
X0007721Y0199392D01*
X0007977Y0199263D01*
X0008237Y0199141D01*
X0008499Y0199025D01*
X0008765Y0198916D01*
X0009032Y0198813D01*
X0009303Y0198717D01*
X0009575Y0198627D01*
X0009850Y0198544D01*
X0010126Y0198468D01*
X0010405Y0198399D01*
X0010685Y0198337D01*
X0010966Y0198281D01*
X0011249Y0198232D01*
X0011532Y0198191D01*
X0011817Y0198156D01*
X0012103Y0198129D01*
X0012389Y0198108D01*
X0012675Y0198094D01*
X0012962Y0198088D01*
X0012962Y0198087D02*
X0186190Y0198087D01*
X0186190Y0198125D02*
X0012962Y0198125D01*
X0012961Y0198126D02*
X0012681Y0198121D01*
X0012400Y0198109D01*
X0012120Y0198091D01*
X0011840Y0198066D01*
X0011561Y0198034D01*
X0011283Y0197995D01*
X0011005Y0197949D01*
X0010729Y0197897D01*
X0010455Y0197839D01*
X0010182Y0197773D01*
X0009910Y0197701D01*
X0009640Y0197623D01*
X0009373Y0197538D01*
X0009107Y0197446D01*
X0008844Y0197348D01*
X0008583Y0197244D01*
X0008325Y0197134D01*
X0008069Y0197017D01*
X0007816Y0196894D01*
X0007567Y0196765D01*
X0007320Y0196630D01*
X0007077Y0196490D01*
X0006838Y0196343D01*
X0006602Y0196191D01*
X0006369Y0196033D01*
X0006141Y0195869D01*
X0005917Y0195700D01*
X0005697Y0195526D01*
X0005481Y0195346D01*
X0005269Y0195161D01*
X0005062Y0194971D01*
X0004860Y0194776D01*
X0004662Y0194577D01*
X0004470Y0194372D01*
X0004282Y0194163D01*
X0004099Y0193950D01*
X0003922Y0193732D01*
X0003750Y0193510D01*
X0003583Y0193284D01*
X0003422Y0193054D01*
X0003267Y0192820D01*
X0003117Y0192582D01*
X0002973Y0192341D01*
X0002835Y0192096D01*
X0002703Y0191849D01*
X0002576Y0191598D01*
X0002456Y0191344D01*
X0002342Y0191087D01*
X0002235Y0190827D01*
X0002133Y0190565D01*
X0002038Y0190301D01*
X0001950Y0190035D01*
X0001868Y0189766D01*
X0001792Y0189495D01*
X0001723Y0189223D01*
X0001661Y0188949D01*
X0001605Y0188674D01*
X0001556Y0188397D01*
X0001513Y0188120D01*
X0001477Y0187841D01*
X0001448Y0187562D01*
X0001426Y0187282D01*
X0001411Y0187001D01*
X0001402Y0186720D01*
X0001400Y0186439D01*
X0001401Y0186439D02*
X0001401Y0013211D01*
X0001401Y0012924D01*
X0001409Y0012637D01*
X0001423Y0012351D01*
X0001445Y0012065D01*
X0001473Y0011780D01*
X0001509Y0011495D01*
X0001551Y0011211D01*
X0001601Y0010929D01*
X0001657Y0010647D01*
X0001721Y0010368D01*
X0001791Y0010090D01*
X0001868Y0009813D01*
X0001951Y0009539D01*
X0002042Y0009267D01*
X0002139Y0008997D01*
X0002242Y0008729D01*
X0002353Y0008464D01*
X0002469Y0008202D01*
X0002592Y0007943D01*
X0002722Y0007687D01*
X0002857Y0007435D01*
X0002999Y0007185D01*
X0003147Y0006939D01*
X0003301Y0006697D01*
X0003460Y0006459D01*
X0003626Y0006225D01*
X0003797Y0005995D01*
X0003974Y0005769D01*
X0004156Y0005547D01*
X0004344Y0005331D01*
X0004537Y0005118D01*
X0004735Y0004911D01*
X0004938Y0004708D01*
X0005146Y0004511D01*
X0005359Y0004319D01*
X0005577Y0004132D01*
X0005799Y0003950D01*
X0006025Y0003774D01*
X0006256Y0003603D01*
X0006490Y0003439D01*
X0006729Y0003280D01*
X0006972Y0003127D01*
X0007218Y0002979D01*
X0007468Y0002839D01*
X0007721Y0002704D01*
X0007977Y0002575D01*
X0008237Y0002453D01*
X0008499Y0002337D01*
X0008765Y0002228D01*
X0009032Y0002125D01*
X0009303Y0002029D01*
X0009575Y0001939D01*
X0009850Y0001856D01*
X0010126Y0001780D01*
X0010405Y0001711D01*
X0010685Y0001649D01*
X0010966Y0001593D01*
X0011249Y0001544D01*
X0011532Y0001503D01*
X0011817Y0001468D01*
X0012103Y0001441D01*
X0012389Y0001420D01*
X0012675Y0001406D01*
X0012962Y0001400D01*
X0198002Y0186440D02*
X0197997Y0186723D01*
X0197985Y0187007D01*
X0197966Y0187290D01*
X0197941Y0187573D01*
X0197909Y0187855D01*
X0197870Y0188136D01*
X0197824Y0188417D01*
X0197771Y0188696D01*
X0197712Y0188973D01*
X0197645Y0189249D01*
X0197573Y0189524D01*
X0197493Y0189796D01*
X0197407Y0190067D01*
X0197315Y0190335D01*
X0197216Y0190602D01*
X0197111Y0190865D01*
X0196999Y0191126D01*
X0196881Y0191385D01*
X0196757Y0191640D01*
X0196627Y0191892D01*
X0196491Y0192141D01*
X0196348Y0192387D01*
X0196200Y0192629D01*
X0196046Y0192868D01*
X0195887Y0193103D01*
X0195721Y0193333D01*
X0195550Y0193560D01*
X0195374Y0193783D01*
X0195193Y0194001D01*
X0195006Y0194215D01*
X0194814Y0194424D01*
X0194617Y0194628D01*
X0194415Y0194828D01*
X0194208Y0195023D01*
X0193997Y0195213D01*
X0193781Y0195397D01*
X0193561Y0195576D01*
X0193337Y0195750D01*
X0193108Y0195919D01*
X0192876Y0196082D01*
X0192639Y0196239D01*
X0192399Y0196390D01*
X0192155Y0196536D01*
X0191908Y0196675D01*
X0191658Y0196809D01*
X0191404Y0196937D01*
X0191147Y0197058D01*
X0190888Y0197173D01*
X0190626Y0197282D01*
X0190361Y0197385D01*
X0190094Y0197481D01*
X0189824Y0197570D01*
X0189553Y0197653D01*
X0189279Y0197730D01*
X0189004Y0197799D01*
X0188727Y0197863D01*
X0188449Y0197919D01*
X0188169Y0197969D01*
X0187889Y0198012D01*
X0187607Y0198048D01*
X0187325Y0198077D01*
X0187042Y0198099D01*
X0186758Y0198115D01*
X0186474Y0198124D01*
X0186190Y0198126D01*
X0186190Y0198088D02*
X0186475Y0198091D01*
X0186761Y0198102D01*
X0187046Y0198119D01*
X0187330Y0198143D01*
X0187614Y0198174D01*
X0187897Y0198212D01*
X0188178Y0198257D01*
X0188459Y0198308D01*
X0188739Y0198366D01*
X0189017Y0198431D01*
X0189293Y0198503D01*
X0189567Y0198581D01*
X0189840Y0198666D01*
X0190110Y0198758D01*
X0190378Y0198856D01*
X0190644Y0198960D01*
X0190907Y0199071D01*
X0191167Y0199188D01*
X0191425Y0199311D01*
X0191679Y0199441D01*
X0191930Y0199577D01*
X0192178Y0199718D01*
X0192422Y0199866D01*
X0192663Y0200019D01*
X0192899Y0200179D01*
X0193132Y0200344D01*
X0193361Y0200514D01*
X0193586Y0200690D01*
X0193806Y0200872D01*
X0194022Y0201058D01*
X0194233Y0201250D01*
X0194440Y0201447D01*
X0194642Y0201649D01*
X0194839Y0201856D01*
X0195031Y0202067D01*
X0195217Y0202283D01*
X0195399Y0202503D01*
X0195575Y0202728D01*
X0195745Y0202957D01*
X0195910Y0203190D01*
X0196070Y0203426D01*
X0196223Y0203667D01*
X0196371Y0203911D01*
X0196512Y0204159D01*
X0196648Y0204410D01*
X0196778Y0204664D01*
X0196901Y0204922D01*
X0197018Y0205182D01*
X0197129Y0205445D01*
X0197233Y0205711D01*
X0197331Y0205979D01*
X0197423Y0206249D01*
X0197508Y0206522D01*
X0197586Y0206796D01*
X0197658Y0207072D01*
X0197723Y0207350D01*
X0197781Y0207630D01*
X0197832Y0207911D01*
X0197877Y0208192D01*
X0197915Y0208475D01*
X0197946Y0208759D01*
X0197970Y0209043D01*
X0197987Y0209328D01*
X0197998Y0209614D01*
X0198001Y0209899D01*
X0197963Y0209899D02*
X0197963Y0209612D01*
X0197971Y0209325D01*
X0197985Y0209039D01*
X0198007Y0208753D01*
X0198035Y0208468D01*
X0198071Y0208183D01*
X0198113Y0207899D01*
X0198163Y0207617D01*
X0198219Y0207335D01*
X0198283Y0207056D01*
X0198353Y0206778D01*
X0198430Y0206501D01*
X0198513Y0206227D01*
X0198604Y0205955D01*
X0198701Y0205685D01*
X0198804Y0205417D01*
X0198915Y0205152D01*
X0199031Y0204890D01*
X0199154Y0204631D01*
X0199284Y0204375D01*
X0199419Y0204123D01*
X0199561Y0203873D01*
X0199709Y0203627D01*
X0199863Y0203385D01*
X0200022Y0203147D01*
X0200188Y0202913D01*
X0200359Y0202683D01*
X0200536Y0202457D01*
X0200718Y0202235D01*
X0200906Y0202019D01*
X0201099Y0201806D01*
X0201297Y0201599D01*
X0201500Y0201396D01*
X0201708Y0201199D01*
X0201921Y0201007D01*
X0202139Y0200820D01*
X0202361Y0200638D01*
X0202587Y0200462D01*
X0202818Y0200291D01*
X0203052Y0200127D01*
X0203291Y0199968D01*
X0203534Y0199815D01*
X0203780Y0199667D01*
X0204030Y0199527D01*
X0204283Y0199392D01*
X0204539Y0199263D01*
X0204799Y0199141D01*
X0205061Y0199025D01*
X0205327Y0198916D01*
X0205594Y0198813D01*
X0205865Y0198717D01*
X0206137Y0198627D01*
X0206412Y0198544D01*
X0206688Y0198468D01*
X0206967Y0198399D01*
X0207247Y0198337D01*
X0207528Y0198281D01*
X0207811Y0198232D01*
X0208094Y0198191D01*
X0208379Y0198156D01*
X0208665Y0198129D01*
X0208951Y0198108D01*
X0209237Y0198094D01*
X0209524Y0198088D01*
X0209524Y0198126D02*
X0209244Y0198121D01*
X0208963Y0198109D01*
X0208683Y0198091D01*
X0208403Y0198066D01*
X0208124Y0198034D01*
X0207846Y0197995D01*
X0207568Y0197949D01*
X0207292Y0197897D01*
X0207018Y0197839D01*
X0206745Y0197773D01*
X0206473Y0197701D01*
X0206203Y0197623D01*
X0205936Y0197538D01*
X0205670Y0197446D01*
X0205407Y0197348D01*
X0205146Y0197244D01*
X0204888Y0197134D01*
X0204632Y0197017D01*
X0204379Y0196894D01*
X0204130Y0196765D01*
X0203883Y0196630D01*
X0203640Y0196490D01*
X0203401Y0196343D01*
X0203165Y0196191D01*
X0202932Y0196033D01*
X0202704Y0195869D01*
X0202480Y0195700D01*
X0202260Y0195526D01*
X0202044Y0195346D01*
X0201832Y0195161D01*
X0201625Y0194971D01*
X0201423Y0194776D01*
X0201225Y0194577D01*
X0201033Y0194372D01*
X0200845Y0194163D01*
X0200662Y0193950D01*
X0200485Y0193732D01*
X0200313Y0193510D01*
X0200146Y0193284D01*
X0199985Y0193054D01*
X0199830Y0192820D01*
X0199680Y0192582D01*
X0199536Y0192341D01*
X0199398Y0192096D01*
X0199266Y0191849D01*
X0199139Y0191598D01*
X0199019Y0191344D01*
X0198905Y0191087D01*
X0198798Y0190827D01*
X0198696Y0190565D01*
X0198601Y0190301D01*
X0198513Y0190035D01*
X0198431Y0189766D01*
X0198355Y0189495D01*
X0198286Y0189223D01*
X0198224Y0188949D01*
X0198168Y0188674D01*
X0198119Y0188397D01*
X0198076Y0188120D01*
X0198040Y0187841D01*
X0198011Y0187562D01*
X0197989Y0187282D01*
X0197974Y0187001D01*
X0197965Y0186720D01*
X0197963Y0186439D01*
D11*
X0248713Y0175650D02*
X0255463Y0175650D01*
X0255499Y0172900D02*
X0248713Y0172900D01*
X0248641Y0172908D01*
X0248570Y0172920D01*
X0248499Y0172936D01*
X0248430Y0172956D01*
X0248361Y0172979D01*
X0248294Y0173006D01*
X0248228Y0173036D01*
X0248164Y0173069D01*
X0248102Y0173106D01*
X0248042Y0173146D01*
X0247984Y0173190D01*
X0247928Y0173236D01*
X0247875Y0173285D01*
X0247825Y0173337D01*
X0247777Y0173391D01*
X0247732Y0173448D01*
X0247690Y0173507D01*
X0247652Y0173568D01*
X0247616Y0173631D01*
X0247584Y0173696D01*
X0247556Y0173762D01*
X0247531Y0173830D01*
X0247509Y0173899D01*
X0247491Y0173969D01*
X0247477Y0174040D01*
X0247467Y0174111D01*
X0247460Y0174183D01*
X0247457Y0174256D01*
X0247458Y0174328D01*
X0247463Y0174400D01*
X0247465Y0174468D01*
X0247470Y0174535D01*
X0247479Y0174602D01*
X0247492Y0174669D01*
X0247509Y0174734D01*
X0247528Y0174799D01*
X0247552Y0174863D01*
X0247579Y0174925D01*
X0247609Y0174986D01*
X0247642Y0175044D01*
X0247678Y0175101D01*
X0247718Y0175156D01*
X0247760Y0175209D01*
X0247806Y0175260D01*
X0247853Y0175307D01*
X0247904Y0175353D01*
X0247957Y0175395D01*
X0248012Y0175435D01*
X0248069Y0175471D01*
X0248127Y0175504D01*
X0248188Y0175534D01*
X0248250Y0175561D01*
X0248314Y0175585D01*
X0248379Y0175604D01*
X0248444Y0175621D01*
X0248511Y0175634D01*
X0248578Y0175643D01*
X0248645Y0175648D01*
X0248713Y0175650D01*
X0255499Y0172900D02*
X0255600Y0172901D01*
X0255702Y0172899D01*
X0255803Y0172892D01*
X0255904Y0172883D01*
X0256005Y0172869D01*
X0256105Y0172851D01*
X0256204Y0172830D01*
X0256303Y0172805D01*
X0256400Y0172777D01*
X0256497Y0172744D01*
X0256592Y0172709D01*
X0256686Y0172669D01*
X0256778Y0172627D01*
X0256868Y0172580D01*
X0256957Y0172531D01*
X0257044Y0172478D01*
X0257129Y0172422D01*
X0257211Y0172363D01*
X0257292Y0172301D01*
X0257369Y0172235D01*
X0257445Y0172167D01*
X0257445Y0172168D02*
X0274981Y0155132D01*
X0277982Y0156132D02*
X0278052Y0156046D01*
X0278120Y0155958D01*
X0278184Y0155867D01*
X0278245Y0155774D01*
X0278302Y0155679D01*
X0278356Y0155582D01*
X0278407Y0155483D01*
X0278454Y0155382D01*
X0278498Y0155280D01*
X0278537Y0155176D01*
X0278573Y0155071D01*
X0278606Y0154964D01*
X0278634Y0154857D01*
X0278659Y0154749D01*
X0278679Y0154639D01*
X0278696Y0154529D01*
X0278709Y0154419D01*
X0278718Y0154308D01*
X0278723Y0154197D01*
X0278724Y0154086D01*
X0278721Y0153975D01*
X0278714Y0153864D01*
X0278713Y0153864D02*
X0278713Y0153900D01*
X0278713Y0153864D02*
X0278713Y0068400D01*
X0278711Y0068324D01*
X0278705Y0068248D01*
X0278696Y0068173D01*
X0278682Y0068098D01*
X0278665Y0068024D01*
X0278644Y0067951D01*
X0278620Y0067879D01*
X0278591Y0067808D01*
X0278560Y0067739D01*
X0278525Y0067672D01*
X0278486Y0067607D01*
X0278444Y0067543D01*
X0278399Y0067482D01*
X0278351Y0067423D01*
X0278300Y0067367D01*
X0278246Y0067313D01*
X0278190Y0067262D01*
X0278131Y0067214D01*
X0278070Y0067169D01*
X0278006Y0067127D01*
X0277941Y0067088D01*
X0277874Y0067053D01*
X0277805Y0067022D01*
X0277734Y0066993D01*
X0277662Y0066969D01*
X0277589Y0066948D01*
X0277515Y0066931D01*
X0277440Y0066917D01*
X0277365Y0066908D01*
X0277289Y0066902D01*
X0277213Y0066900D01*
X0277137Y0066902D01*
X0277061Y0066908D01*
X0276986Y0066917D01*
X0276911Y0066931D01*
X0276837Y0066948D01*
X0276764Y0066969D01*
X0276692Y0066993D01*
X0276621Y0067022D01*
X0276552Y0067053D01*
X0276485Y0067088D01*
X0276420Y0067127D01*
X0276356Y0067169D01*
X0276295Y0067214D01*
X0276236Y0067262D01*
X0276180Y0067313D01*
X0276126Y0067367D01*
X0276075Y0067423D01*
X0276027Y0067482D01*
X0275982Y0067543D01*
X0275940Y0067607D01*
X0275901Y0067672D01*
X0275866Y0067739D01*
X0275835Y0067808D01*
X0275806Y0067879D01*
X0275782Y0067951D01*
X0275761Y0068024D01*
X0275744Y0068098D01*
X0275730Y0068173D01*
X0275721Y0068248D01*
X0275715Y0068324D01*
X0275713Y0068400D01*
X0275713Y0153364D01*
X0275713Y0153400D01*
X0275713Y0153364D02*
X0275711Y0153462D01*
X0275705Y0153560D01*
X0275696Y0153658D01*
X0275682Y0153755D01*
X0275665Y0153852D01*
X0275644Y0153948D01*
X0275619Y0154043D01*
X0275591Y0154137D01*
X0275558Y0154229D01*
X0275523Y0154321D01*
X0275483Y0154411D01*
X0275441Y0154499D01*
X0275394Y0154586D01*
X0275345Y0154670D01*
X0275292Y0154753D01*
X0275236Y0154833D01*
X0275176Y0154912D01*
X0275114Y0154988D01*
X0275049Y0155061D01*
X0274981Y0155132D01*
X0277981Y0156132D02*
X0260067Y0173546D01*
X0259958Y0173660D01*
X0259847Y0173771D01*
X0259733Y0173880D01*
X0259617Y0173986D01*
X0259498Y0174089D01*
X0259377Y0174189D01*
X0259253Y0174287D01*
X0259127Y0174381D01*
X0258999Y0174472D01*
X0258868Y0174560D01*
X0258736Y0174646D01*
X0258602Y0174728D01*
X0258465Y0174806D01*
X0258327Y0174882D01*
X0258187Y0174954D01*
X0258046Y0175023D01*
X0257903Y0175088D01*
X0257758Y0175150D01*
X0257612Y0175209D01*
X0257464Y0175264D01*
X0257316Y0175315D01*
X0257166Y0175363D01*
X0257015Y0175407D01*
X0256863Y0175448D01*
X0256710Y0175485D01*
X0256556Y0175519D01*
X0256402Y0175549D01*
X0256246Y0175575D01*
X0256091Y0175597D01*
X0255934Y0175616D01*
X0255778Y0175631D01*
X0255621Y0175642D01*
X0255463Y0175650D01*
X0230213Y0137900D02*
X0222249Y0137900D01*
X0219981Y0137168D02*
X0217567Y0134754D01*
X0218946Y0132132D02*
X0218875Y0132064D01*
X0218802Y0131999D01*
X0218726Y0131937D01*
X0218647Y0131877D01*
X0218567Y0131821D01*
X0218484Y0131768D01*
X0218400Y0131719D01*
X0218313Y0131672D01*
X0218225Y0131630D01*
X0218135Y0131590D01*
X0218043Y0131555D01*
X0217951Y0131522D01*
X0217857Y0131494D01*
X0217762Y0131469D01*
X0217666Y0131448D01*
X0217569Y0131431D01*
X0217472Y0131417D01*
X0217374Y0131408D01*
X0217276Y0131402D01*
X0217178Y0131400D01*
X0208713Y0131400D01*
X0207213Y0132900D02*
X0207215Y0132976D01*
X0207221Y0133052D01*
X0207230Y0133127D01*
X0207244Y0133202D01*
X0207261Y0133276D01*
X0207282Y0133349D01*
X0207306Y0133421D01*
X0207335Y0133492D01*
X0207366Y0133561D01*
X0207401Y0133628D01*
X0207440Y0133693D01*
X0207482Y0133757D01*
X0207527Y0133818D01*
X0207575Y0133877D01*
X0207626Y0133933D01*
X0207680Y0133987D01*
X0207736Y0134038D01*
X0207795Y0134086D01*
X0207856Y0134131D01*
X0207920Y0134173D01*
X0207985Y0134212D01*
X0208052Y0134247D01*
X0208121Y0134278D01*
X0208192Y0134307D01*
X0208264Y0134331D01*
X0208337Y0134352D01*
X0208411Y0134369D01*
X0208486Y0134383D01*
X0208561Y0134392D01*
X0208637Y0134398D01*
X0208713Y0134400D01*
X0216213Y0134400D01*
X0216297Y0134391D01*
X0216381Y0134385D01*
X0216466Y0134383D01*
X0216550Y0134385D01*
X0216634Y0134391D01*
X0216718Y0134401D01*
X0216801Y0134415D01*
X0216884Y0134432D01*
X0216966Y0134453D01*
X0217046Y0134479D01*
X0217126Y0134507D01*
X0217204Y0134540D01*
X0217280Y0134576D01*
X0217355Y0134615D01*
X0217427Y0134658D01*
X0217498Y0134704D01*
X0217567Y0134754D01*
X0218945Y0132132D02*
X0220981Y0134168D01*
X0219981Y0137168D02*
X0220063Y0137235D01*
X0220148Y0137300D01*
X0220234Y0137362D01*
X0220323Y0137420D01*
X0220413Y0137476D01*
X0220506Y0137529D01*
X0220600Y0137578D01*
X0220696Y0137624D01*
X0220793Y0137667D01*
X0220892Y0137706D01*
X0220992Y0137743D01*
X0221093Y0137775D01*
X0221195Y0137804D01*
X0221298Y0137830D01*
X0221402Y0137852D01*
X0221507Y0137871D01*
X0221612Y0137886D01*
X0221718Y0137897D01*
X0221824Y0137905D01*
X0221930Y0137909D01*
X0222037Y0137910D01*
X0222143Y0137907D01*
X0222249Y0137900D01*
X0222749Y0134900D02*
X0230213Y0134900D01*
X0231713Y0136400D02*
X0231711Y0136476D01*
X0231705Y0136552D01*
X0231696Y0136627D01*
X0231682Y0136702D01*
X0231665Y0136776D01*
X0231644Y0136849D01*
X0231620Y0136921D01*
X0231591Y0136992D01*
X0231560Y0137061D01*
X0231525Y0137128D01*
X0231486Y0137193D01*
X0231444Y0137257D01*
X0231399Y0137318D01*
X0231351Y0137377D01*
X0231300Y0137433D01*
X0231246Y0137487D01*
X0231190Y0137538D01*
X0231131Y0137586D01*
X0231070Y0137631D01*
X0231006Y0137673D01*
X0230941Y0137712D01*
X0230874Y0137747D01*
X0230805Y0137778D01*
X0230734Y0137807D01*
X0230662Y0137831D01*
X0230589Y0137852D01*
X0230515Y0137869D01*
X0230440Y0137883D01*
X0230365Y0137892D01*
X0230289Y0137898D01*
X0230213Y0137900D01*
X0231713Y0136400D02*
X0231711Y0136324D01*
X0231705Y0136248D01*
X0231696Y0136173D01*
X0231682Y0136098D01*
X0231665Y0136024D01*
X0231644Y0135951D01*
X0231620Y0135879D01*
X0231591Y0135808D01*
X0231560Y0135739D01*
X0231525Y0135672D01*
X0231486Y0135607D01*
X0231444Y0135543D01*
X0231399Y0135482D01*
X0231351Y0135423D01*
X0231300Y0135367D01*
X0231246Y0135313D01*
X0231190Y0135262D01*
X0231131Y0135214D01*
X0231070Y0135169D01*
X0231006Y0135127D01*
X0230941Y0135088D01*
X0230874Y0135053D01*
X0230805Y0135022D01*
X0230734Y0134993D01*
X0230662Y0134969D01*
X0230589Y0134948D01*
X0230515Y0134931D01*
X0230440Y0134917D01*
X0230365Y0134908D01*
X0230289Y0134902D01*
X0230213Y0134900D01*
X0222749Y0134900D02*
X0222651Y0134898D01*
X0222553Y0134892D01*
X0222455Y0134883D01*
X0222358Y0134869D01*
X0222261Y0134852D01*
X0222165Y0134831D01*
X0222070Y0134806D01*
X0221976Y0134778D01*
X0221884Y0134745D01*
X0221792Y0134710D01*
X0221702Y0134670D01*
X0221614Y0134628D01*
X0221527Y0134581D01*
X0221443Y0134532D01*
X0221360Y0134479D01*
X0221280Y0134423D01*
X0221201Y0134363D01*
X0221125Y0134301D01*
X0221052Y0134236D01*
X0220981Y0134168D01*
X0208713Y0131400D02*
X0208637Y0131402D01*
X0208561Y0131408D01*
X0208486Y0131417D01*
X0208411Y0131431D01*
X0208337Y0131448D01*
X0208264Y0131469D01*
X0208192Y0131493D01*
X0208121Y0131522D01*
X0208052Y0131553D01*
X0207985Y0131588D01*
X0207920Y0131627D01*
X0207856Y0131669D01*
X0207795Y0131714D01*
X0207736Y0131762D01*
X0207680Y0131813D01*
X0207626Y0131867D01*
X0207575Y0131923D01*
X0207527Y0131982D01*
X0207482Y0132043D01*
X0207440Y0132107D01*
X0207401Y0132172D01*
X0207366Y0132239D01*
X0207335Y0132308D01*
X0207306Y0132379D01*
X0207282Y0132451D01*
X0207261Y0132524D01*
X0207244Y0132598D01*
X0207230Y0132673D01*
X0207221Y0132748D01*
X0207215Y0132824D01*
X0207213Y0132900D01*
X0208213Y0091900D02*
X0256713Y0091900D01*
X0256789Y0091898D01*
X0256865Y0091892D01*
X0256940Y0091883D01*
X0257015Y0091869D01*
X0257089Y0091852D01*
X0257162Y0091831D01*
X0257234Y0091807D01*
X0257305Y0091778D01*
X0257374Y0091747D01*
X0257441Y0091712D01*
X0257506Y0091673D01*
X0257570Y0091631D01*
X0257631Y0091586D01*
X0257690Y0091538D01*
X0257746Y0091487D01*
X0257800Y0091433D01*
X0257851Y0091377D01*
X0257899Y0091318D01*
X0257944Y0091257D01*
X0257986Y0091193D01*
X0258025Y0091128D01*
X0258060Y0091061D01*
X0258091Y0090992D01*
X0258120Y0090921D01*
X0258144Y0090849D01*
X0258165Y0090776D01*
X0258182Y0090702D01*
X0258196Y0090627D01*
X0258205Y0090552D01*
X0258211Y0090476D01*
X0258213Y0090400D01*
X0258211Y0090324D01*
X0258205Y0090248D01*
X0258196Y0090173D01*
X0258182Y0090098D01*
X0258165Y0090024D01*
X0258144Y0089951D01*
X0258120Y0089879D01*
X0258091Y0089808D01*
X0258060Y0089739D01*
X0258025Y0089672D01*
X0257986Y0089607D01*
X0257944Y0089543D01*
X0257899Y0089482D01*
X0257851Y0089423D01*
X0257800Y0089367D01*
X0257746Y0089313D01*
X0257690Y0089262D01*
X0257631Y0089214D01*
X0257570Y0089169D01*
X0257506Y0089127D01*
X0257441Y0089088D01*
X0257374Y0089053D01*
X0257305Y0089022D01*
X0257234Y0088993D01*
X0257162Y0088969D01*
X0257089Y0088948D01*
X0257015Y0088931D01*
X0256940Y0088917D01*
X0256865Y0088908D01*
X0256789Y0088902D01*
X0256713Y0088900D01*
X0256678Y0088900D02*
X0208213Y0088900D01*
X0206713Y0090400D02*
X0206715Y0090476D01*
X0206721Y0090552D01*
X0206730Y0090627D01*
X0206744Y0090702D01*
X0206761Y0090776D01*
X0206782Y0090849D01*
X0206806Y0090921D01*
X0206835Y0090992D01*
X0206866Y0091061D01*
X0206901Y0091128D01*
X0206940Y0091193D01*
X0206982Y0091257D01*
X0207027Y0091318D01*
X0207075Y0091377D01*
X0207126Y0091433D01*
X0207180Y0091487D01*
X0207236Y0091538D01*
X0207295Y0091586D01*
X0207356Y0091631D01*
X0207420Y0091673D01*
X0207485Y0091712D01*
X0207552Y0091747D01*
X0207621Y0091778D01*
X0207692Y0091807D01*
X0207764Y0091831D01*
X0207837Y0091852D01*
X0207911Y0091869D01*
X0207986Y0091883D01*
X0208061Y0091892D01*
X0208137Y0091898D01*
X0208213Y0091900D01*
X0206713Y0090400D02*
X0206715Y0090324D01*
X0206721Y0090248D01*
X0206730Y0090173D01*
X0206744Y0090098D01*
X0206761Y0090024D01*
X0206782Y0089951D01*
X0206806Y0089879D01*
X0206835Y0089808D01*
X0206866Y0089739D01*
X0206901Y0089672D01*
X0206940Y0089607D01*
X0206982Y0089543D01*
X0207027Y0089482D01*
X0207075Y0089423D01*
X0207126Y0089367D01*
X0207180Y0089313D01*
X0207236Y0089262D01*
X0207295Y0089214D01*
X0207356Y0089169D01*
X0207420Y0089127D01*
X0207485Y0089088D01*
X0207552Y0089053D01*
X0207621Y0089022D01*
X0207692Y0088993D01*
X0207764Y0088969D01*
X0207837Y0088948D01*
X0207911Y0088931D01*
X0207986Y0088917D01*
X0208061Y0088908D01*
X0208137Y0088902D01*
X0208213Y0088900D01*
X0208213Y0071900D02*
X0228713Y0071900D01*
X0228786Y0071874D01*
X0228858Y0071844D01*
X0228928Y0071810D01*
X0228996Y0071774D01*
X0229062Y0071733D01*
X0229127Y0071690D01*
X0229189Y0071644D01*
X0229249Y0071594D01*
X0229306Y0071542D01*
X0229361Y0071487D01*
X0229413Y0071429D01*
X0229462Y0071369D01*
X0229508Y0071307D01*
X0229551Y0071242D01*
X0229591Y0071176D01*
X0229627Y0071107D01*
X0229660Y0071037D01*
X0229690Y0070965D01*
X0229716Y0070892D01*
X0229738Y0070818D01*
X0229757Y0070742D01*
X0229771Y0070666D01*
X0229783Y0070589D01*
X0229790Y0070512D01*
X0229794Y0070435D01*
X0229793Y0070357D01*
X0229789Y0070279D01*
X0229782Y0070202D01*
X0229770Y0070126D01*
X0229755Y0070049D01*
X0229736Y0069974D01*
X0229713Y0069900D01*
X0229698Y0069833D01*
X0229679Y0069766D01*
X0229656Y0069701D01*
X0229630Y0069637D01*
X0229601Y0069575D01*
X0229568Y0069514D01*
X0229532Y0069455D01*
X0229493Y0069398D01*
X0229450Y0069343D01*
X0229405Y0069291D01*
X0229357Y0069241D01*
X0229307Y0069194D01*
X0229254Y0069150D01*
X0229199Y0069109D01*
X0229141Y0069070D01*
X0229082Y0069035D01*
X0229021Y0069003D01*
X0228958Y0068975D01*
X0228893Y0068950D01*
X0228828Y0068928D01*
X0228761Y0068910D01*
X0228693Y0068896D01*
X0228625Y0068885D01*
X0228557Y0068878D01*
X0228488Y0068875D01*
X0228419Y0068876D01*
X0228350Y0068880D01*
X0228281Y0068888D01*
X0228213Y0068900D01*
X0208213Y0068900D01*
X0206713Y0070400D02*
X0206715Y0070476D01*
X0206721Y0070552D01*
X0206730Y0070627D01*
X0206744Y0070702D01*
X0206761Y0070776D01*
X0206782Y0070849D01*
X0206806Y0070921D01*
X0206835Y0070992D01*
X0206866Y0071061D01*
X0206901Y0071128D01*
X0206940Y0071193D01*
X0206982Y0071257D01*
X0207027Y0071318D01*
X0207075Y0071377D01*
X0207126Y0071433D01*
X0207180Y0071487D01*
X0207236Y0071538D01*
X0207295Y0071586D01*
X0207356Y0071631D01*
X0207420Y0071673D01*
X0207485Y0071712D01*
X0207552Y0071747D01*
X0207621Y0071778D01*
X0207692Y0071807D01*
X0207764Y0071831D01*
X0207837Y0071852D01*
X0207911Y0071869D01*
X0207986Y0071883D01*
X0208061Y0071892D01*
X0208137Y0071898D01*
X0208213Y0071900D01*
X0206713Y0070400D02*
X0206715Y0070324D01*
X0206721Y0070248D01*
X0206730Y0070173D01*
X0206744Y0070098D01*
X0206761Y0070024D01*
X0206782Y0069951D01*
X0206806Y0069879D01*
X0206835Y0069808D01*
X0206866Y0069739D01*
X0206901Y0069672D01*
X0206940Y0069607D01*
X0206982Y0069543D01*
X0207027Y0069482D01*
X0207075Y0069423D01*
X0207126Y0069367D01*
X0207180Y0069313D01*
X0207236Y0069262D01*
X0207295Y0069214D01*
X0207356Y0069169D01*
X0207420Y0069127D01*
X0207485Y0069088D01*
X0207552Y0069053D01*
X0207621Y0069022D01*
X0207692Y0068993D01*
X0207764Y0068969D01*
X0207837Y0068948D01*
X0207911Y0068931D01*
X0207986Y0068917D01*
X0208061Y0068908D01*
X0208137Y0068902D01*
X0208213Y0068900D01*
X0275713Y0039400D02*
X0275713Y0027400D01*
X0275700Y0027298D01*
X0275692Y0027196D01*
X0275687Y0027094D01*
X0275686Y0026991D01*
X0275689Y0026889D01*
X0275697Y0026787D01*
X0275708Y0026685D01*
X0275723Y0026584D01*
X0275742Y0026483D01*
X0275765Y0026383D01*
X0275792Y0026284D01*
X0275822Y0026186D01*
X0275856Y0026090D01*
X0275894Y0025995D01*
X0275936Y0025901D01*
X0275981Y0025809D01*
X0276030Y0025719D01*
X0276082Y0025631D01*
X0276138Y0025545D01*
X0276196Y0025461D01*
X0276258Y0025379D01*
X0276324Y0025300D01*
X0276392Y0025224D01*
X0276463Y0025150D01*
X0276537Y0025079D01*
X0276613Y0025011D01*
X0276692Y0024945D01*
X0276774Y0024883D01*
X0276858Y0024825D01*
X0276944Y0024769D01*
X0277032Y0024717D01*
X0277122Y0024668D01*
X0277214Y0024623D01*
X0277308Y0024581D01*
X0277403Y0024543D01*
X0277499Y0024509D01*
X0277597Y0024479D01*
X0277696Y0024452D01*
X0277796Y0024429D01*
X0277897Y0024410D01*
X0277998Y0024395D01*
X0278100Y0024384D01*
X0278202Y0024376D01*
X0278304Y0024373D01*
X0278407Y0024374D01*
X0278509Y0024379D01*
X0278611Y0024387D01*
X0278713Y0024400D01*
X0293213Y0024400D01*
X0293300Y0024398D01*
X0293387Y0024392D01*
X0293474Y0024383D01*
X0293560Y0024370D01*
X0293646Y0024353D01*
X0293731Y0024332D01*
X0293814Y0024307D01*
X0293897Y0024279D01*
X0293978Y0024248D01*
X0294058Y0024213D01*
X0294136Y0024174D01*
X0294213Y0024132D01*
X0294288Y0024087D01*
X0294360Y0024038D01*
X0294431Y0023987D01*
X0294499Y0023932D01*
X0294564Y0023875D01*
X0294627Y0023814D01*
X0294688Y0023751D01*
X0294745Y0023686D01*
X0294800Y0023618D01*
X0294851Y0023547D01*
X0294900Y0023475D01*
X0294945Y0023400D01*
X0294987Y0023323D01*
X0295026Y0023245D01*
X0295061Y0023165D01*
X0295092Y0023084D01*
X0295120Y0023001D01*
X0295145Y0022918D01*
X0295166Y0022833D01*
X0295183Y0022747D01*
X0295196Y0022661D01*
X0295205Y0022574D01*
X0295211Y0022487D01*
X0295213Y0022400D01*
X0295213Y0011900D01*
X0295215Y0011824D01*
X0295221Y0011748D01*
X0295230Y0011673D01*
X0295244Y0011598D01*
X0295261Y0011524D01*
X0295282Y0011451D01*
X0295306Y0011379D01*
X0295335Y0011308D01*
X0295366Y0011239D01*
X0295401Y0011172D01*
X0295440Y0011107D01*
X0295482Y0011043D01*
X0295527Y0010982D01*
X0295575Y0010923D01*
X0295626Y0010867D01*
X0295680Y0010813D01*
X0295736Y0010762D01*
X0295795Y0010714D01*
X0295856Y0010669D01*
X0295920Y0010627D01*
X0295985Y0010588D01*
X0296052Y0010553D01*
X0296121Y0010522D01*
X0296192Y0010493D01*
X0296264Y0010469D01*
X0296337Y0010448D01*
X0296411Y0010431D01*
X0296486Y0010417D01*
X0296561Y0010408D01*
X0296637Y0010402D01*
X0296713Y0010400D01*
X0296789Y0010402D01*
X0296865Y0010408D01*
X0296940Y0010417D01*
X0297015Y0010431D01*
X0297089Y0010448D01*
X0297162Y0010469D01*
X0297234Y0010493D01*
X0297305Y0010522D01*
X0297374Y0010553D01*
X0297441Y0010588D01*
X0297506Y0010627D01*
X0297570Y0010669D01*
X0297631Y0010714D01*
X0297690Y0010762D01*
X0297746Y0010813D01*
X0297800Y0010867D01*
X0297851Y0010923D01*
X0297899Y0010982D01*
X0297944Y0011043D01*
X0297986Y0011107D01*
X0298025Y0011172D01*
X0298060Y0011239D01*
X0298091Y0011308D01*
X0298120Y0011379D01*
X0298144Y0011451D01*
X0298165Y0011524D01*
X0298182Y0011598D01*
X0298196Y0011673D01*
X0298205Y0011748D01*
X0298211Y0011824D01*
X0298213Y0011900D01*
X0298213Y0025400D01*
X0298192Y0025498D01*
X0298167Y0025595D01*
X0298137Y0025691D01*
X0298104Y0025785D01*
X0298068Y0025878D01*
X0298028Y0025970D01*
X0297984Y0026060D01*
X0297937Y0026148D01*
X0297886Y0026235D01*
X0297832Y0026319D01*
X0297774Y0026401D01*
X0297714Y0026481D01*
X0297650Y0026558D01*
X0297584Y0026633D01*
X0297514Y0026705D01*
X0297442Y0026774D01*
X0297367Y0026841D01*
X0297290Y0026904D01*
X0297210Y0026965D01*
X0297127Y0027022D01*
X0297043Y0027076D01*
X0296957Y0027126D01*
X0296868Y0027173D01*
X0296778Y0027217D01*
X0296686Y0027257D01*
X0296593Y0027293D01*
X0296498Y0027326D01*
X0296403Y0027355D01*
X0296306Y0027380D01*
X0296208Y0027402D01*
X0296109Y0027419D01*
X0296010Y0027433D01*
X0295910Y0027442D01*
X0295810Y0027448D01*
X0295710Y0027450D01*
X0295610Y0027448D01*
X0295510Y0027442D01*
X0295411Y0027432D01*
X0295311Y0027418D01*
X0295213Y0027400D01*
X0280713Y0027400D01*
X0280626Y0027402D01*
X0280539Y0027408D01*
X0280452Y0027417D01*
X0280366Y0027430D01*
X0280280Y0027447D01*
X0280195Y0027468D01*
X0280112Y0027493D01*
X0280029Y0027521D01*
X0279948Y0027552D01*
X0279868Y0027587D01*
X0279790Y0027626D01*
X0279713Y0027668D01*
X0279638Y0027713D01*
X0279566Y0027762D01*
X0279495Y0027813D01*
X0279427Y0027868D01*
X0279362Y0027925D01*
X0279299Y0027986D01*
X0279238Y0028049D01*
X0279181Y0028114D01*
X0279126Y0028182D01*
X0279075Y0028253D01*
X0279026Y0028325D01*
X0278981Y0028400D01*
X0278939Y0028477D01*
X0278900Y0028555D01*
X0278865Y0028635D01*
X0278834Y0028716D01*
X0278806Y0028799D01*
X0278781Y0028882D01*
X0278760Y0028967D01*
X0278743Y0029053D01*
X0278730Y0029139D01*
X0278721Y0029226D01*
X0278715Y0029313D01*
X0278713Y0029400D01*
X0278713Y0039400D01*
X0278711Y0039476D01*
X0278705Y0039552D01*
X0278696Y0039627D01*
X0278682Y0039702D01*
X0278665Y0039776D01*
X0278644Y0039849D01*
X0278620Y0039921D01*
X0278591Y0039992D01*
X0278560Y0040061D01*
X0278525Y0040128D01*
X0278486Y0040193D01*
X0278444Y0040257D01*
X0278399Y0040318D01*
X0278351Y0040377D01*
X0278300Y0040433D01*
X0278246Y0040487D01*
X0278190Y0040538D01*
X0278131Y0040586D01*
X0278070Y0040631D01*
X0278006Y0040673D01*
X0277941Y0040712D01*
X0277874Y0040747D01*
X0277805Y0040778D01*
X0277734Y0040807D01*
X0277662Y0040831D01*
X0277589Y0040852D01*
X0277515Y0040869D01*
X0277440Y0040883D01*
X0277365Y0040892D01*
X0277289Y0040898D01*
X0277213Y0040900D01*
X0277137Y0040898D01*
X0277061Y0040892D01*
X0276986Y0040883D01*
X0276911Y0040869D01*
X0276837Y0040852D01*
X0276764Y0040831D01*
X0276692Y0040807D01*
X0276621Y0040778D01*
X0276552Y0040747D01*
X0276485Y0040712D01*
X0276420Y0040673D01*
X0276356Y0040631D01*
X0276295Y0040586D01*
X0276236Y0040538D01*
X0276180Y0040487D01*
X0276126Y0040433D01*
X0276075Y0040377D01*
X0276027Y0040318D01*
X0275982Y0040257D01*
X0275940Y0040193D01*
X0275901Y0040128D01*
X0275866Y0040061D01*
X0275835Y0039992D01*
X0275806Y0039921D01*
X0275782Y0039849D01*
X0275761Y0039776D01*
X0275744Y0039702D01*
X0275730Y0039627D01*
X0275721Y0039552D01*
X0275715Y0039476D01*
X0275713Y0039400D01*
X0295213Y0208587D02*
X0295213Y0219087D01*
X0295211Y0219174D01*
X0295205Y0219261D01*
X0295196Y0219348D01*
X0295183Y0219434D01*
X0295166Y0219520D01*
X0295145Y0219605D01*
X0295120Y0219688D01*
X0295092Y0219771D01*
X0295061Y0219852D01*
X0295026Y0219932D01*
X0294987Y0220010D01*
X0294945Y0220087D01*
X0294900Y0220162D01*
X0294851Y0220234D01*
X0294800Y0220305D01*
X0294745Y0220373D01*
X0294688Y0220438D01*
X0294627Y0220501D01*
X0294564Y0220562D01*
X0294499Y0220619D01*
X0294431Y0220674D01*
X0294360Y0220725D01*
X0294288Y0220774D01*
X0294213Y0220819D01*
X0294136Y0220861D01*
X0294058Y0220900D01*
X0293978Y0220935D01*
X0293897Y0220966D01*
X0293814Y0220994D01*
X0293731Y0221019D01*
X0293646Y0221040D01*
X0293560Y0221057D01*
X0293474Y0221070D01*
X0293387Y0221079D01*
X0293300Y0221085D01*
X0293213Y0221087D01*
X0278713Y0221087D01*
X0278611Y0221074D01*
X0278509Y0221066D01*
X0278407Y0221061D01*
X0278304Y0221060D01*
X0278202Y0221063D01*
X0278100Y0221071D01*
X0277998Y0221082D01*
X0277897Y0221097D01*
X0277796Y0221116D01*
X0277696Y0221139D01*
X0277597Y0221166D01*
X0277499Y0221196D01*
X0277403Y0221230D01*
X0277308Y0221268D01*
X0277214Y0221310D01*
X0277122Y0221355D01*
X0277032Y0221404D01*
X0276944Y0221456D01*
X0276858Y0221512D01*
X0276774Y0221570D01*
X0276692Y0221632D01*
X0276613Y0221698D01*
X0276537Y0221766D01*
X0276463Y0221837D01*
X0276392Y0221911D01*
X0276324Y0221987D01*
X0276258Y0222066D01*
X0276196Y0222148D01*
X0276138Y0222232D01*
X0276082Y0222318D01*
X0276030Y0222406D01*
X0275981Y0222496D01*
X0275936Y0222588D01*
X0275894Y0222682D01*
X0275856Y0222777D01*
X0275822Y0222873D01*
X0275792Y0222971D01*
X0275765Y0223070D01*
X0275742Y0223170D01*
X0275723Y0223271D01*
X0275708Y0223372D01*
X0275697Y0223474D01*
X0275689Y0223576D01*
X0275686Y0223678D01*
X0275687Y0223781D01*
X0275692Y0223883D01*
X0275700Y0223985D01*
X0275713Y0224087D01*
X0275713Y0236087D01*
X0275715Y0236163D01*
X0275721Y0236239D01*
X0275730Y0236314D01*
X0275744Y0236389D01*
X0275761Y0236463D01*
X0275782Y0236536D01*
X0275806Y0236608D01*
X0275835Y0236679D01*
X0275866Y0236748D01*
X0275901Y0236815D01*
X0275940Y0236880D01*
X0275982Y0236944D01*
X0276027Y0237005D01*
X0276075Y0237064D01*
X0276126Y0237120D01*
X0276180Y0237174D01*
X0276236Y0237225D01*
X0276295Y0237273D01*
X0276356Y0237318D01*
X0276420Y0237360D01*
X0276485Y0237399D01*
X0276552Y0237434D01*
X0276621Y0237465D01*
X0276692Y0237494D01*
X0276764Y0237518D01*
X0276837Y0237539D01*
X0276911Y0237556D01*
X0276986Y0237570D01*
X0277061Y0237579D01*
X0277137Y0237585D01*
X0277213Y0237587D01*
X0277289Y0237585D01*
X0277365Y0237579D01*
X0277440Y0237570D01*
X0277515Y0237556D01*
X0277589Y0237539D01*
X0277662Y0237518D01*
X0277734Y0237494D01*
X0277805Y0237465D01*
X0277874Y0237434D01*
X0277941Y0237399D01*
X0278006Y0237360D01*
X0278070Y0237318D01*
X0278131Y0237273D01*
X0278190Y0237225D01*
X0278246Y0237174D01*
X0278300Y0237120D01*
X0278351Y0237064D01*
X0278399Y0237005D01*
X0278444Y0236944D01*
X0278486Y0236880D01*
X0278525Y0236815D01*
X0278560Y0236748D01*
X0278591Y0236679D01*
X0278620Y0236608D01*
X0278644Y0236536D01*
X0278665Y0236463D01*
X0278682Y0236389D01*
X0278696Y0236314D01*
X0278705Y0236239D01*
X0278711Y0236163D01*
X0278713Y0236087D01*
X0278713Y0226087D01*
X0278715Y0226000D01*
X0278721Y0225913D01*
X0278730Y0225826D01*
X0278743Y0225740D01*
X0278760Y0225654D01*
X0278781Y0225569D01*
X0278806Y0225486D01*
X0278834Y0225403D01*
X0278865Y0225322D01*
X0278900Y0225242D01*
X0278939Y0225164D01*
X0278981Y0225087D01*
X0279026Y0225012D01*
X0279075Y0224940D01*
X0279126Y0224869D01*
X0279181Y0224801D01*
X0279238Y0224736D01*
X0279299Y0224673D01*
X0279362Y0224612D01*
X0279427Y0224555D01*
X0279495Y0224500D01*
X0279566Y0224449D01*
X0279638Y0224400D01*
X0279713Y0224355D01*
X0279790Y0224313D01*
X0279868Y0224274D01*
X0279948Y0224239D01*
X0280029Y0224208D01*
X0280112Y0224180D01*
X0280195Y0224155D01*
X0280280Y0224134D01*
X0280366Y0224117D01*
X0280452Y0224104D01*
X0280539Y0224095D01*
X0280626Y0224089D01*
X0280713Y0224087D01*
X0295213Y0224087D01*
X0295311Y0224105D01*
X0295411Y0224119D01*
X0295510Y0224129D01*
X0295610Y0224135D01*
X0295710Y0224137D01*
X0295810Y0224135D01*
X0295910Y0224129D01*
X0296010Y0224120D01*
X0296109Y0224106D01*
X0296208Y0224089D01*
X0296306Y0224067D01*
X0296403Y0224042D01*
X0296498Y0224013D01*
X0296593Y0223980D01*
X0296686Y0223944D01*
X0296778Y0223904D01*
X0296868Y0223860D01*
X0296957Y0223813D01*
X0297043Y0223763D01*
X0297127Y0223709D01*
X0297210Y0223652D01*
X0297290Y0223591D01*
X0297367Y0223528D01*
X0297442Y0223461D01*
X0297514Y0223392D01*
X0297584Y0223320D01*
X0297650Y0223245D01*
X0297714Y0223168D01*
X0297774Y0223088D01*
X0297832Y0223006D01*
X0297886Y0222922D01*
X0297937Y0222835D01*
X0297984Y0222747D01*
X0298028Y0222657D01*
X0298068Y0222565D01*
X0298104Y0222472D01*
X0298137Y0222378D01*
X0298167Y0222282D01*
X0298192Y0222185D01*
X0298213Y0222087D01*
X0298213Y0208587D01*
X0298211Y0208511D01*
X0298205Y0208435D01*
X0298196Y0208360D01*
X0298182Y0208285D01*
X0298165Y0208211D01*
X0298144Y0208138D01*
X0298120Y0208066D01*
X0298091Y0207995D01*
X0298060Y0207926D01*
X0298025Y0207859D01*
X0297986Y0207794D01*
X0297944Y0207730D01*
X0297899Y0207669D01*
X0297851Y0207610D01*
X0297800Y0207554D01*
X0297746Y0207500D01*
X0297690Y0207449D01*
X0297631Y0207401D01*
X0297570Y0207356D01*
X0297506Y0207314D01*
X0297441Y0207275D01*
X0297374Y0207240D01*
X0297305Y0207209D01*
X0297234Y0207180D01*
X0297162Y0207156D01*
X0297089Y0207135D01*
X0297015Y0207118D01*
X0296940Y0207104D01*
X0296865Y0207095D01*
X0296789Y0207089D01*
X0296713Y0207087D01*
X0296637Y0207089D01*
X0296561Y0207095D01*
X0296486Y0207104D01*
X0296411Y0207118D01*
X0296337Y0207135D01*
X0296264Y0207156D01*
X0296192Y0207180D01*
X0296121Y0207209D01*
X0296052Y0207240D01*
X0295985Y0207275D01*
X0295920Y0207314D01*
X0295856Y0207356D01*
X0295795Y0207401D01*
X0295736Y0207449D01*
X0295680Y0207500D01*
X0295626Y0207554D01*
X0295575Y0207610D01*
X0295527Y0207669D01*
X0295482Y0207730D01*
X0295440Y0207794D01*
X0295401Y0207859D01*
X0295366Y0207926D01*
X0295335Y0207995D01*
X0295306Y0208066D01*
X0295282Y0208138D01*
X0295261Y0208211D01*
X0295244Y0208285D01*
X0295230Y0208360D01*
X0295221Y0208435D01*
X0295215Y0208511D01*
X0295213Y0208587D01*
X0278713Y0265088D02*
X0278713Y0350552D01*
X0278713Y0350587D01*
X0277981Y0352820D02*
X0260067Y0370234D01*
X0257445Y0368855D02*
X0274981Y0351820D01*
X0277982Y0352820D02*
X0278052Y0352734D01*
X0278120Y0352646D01*
X0278184Y0352555D01*
X0278245Y0352462D01*
X0278302Y0352367D01*
X0278356Y0352270D01*
X0278407Y0352171D01*
X0278454Y0352070D01*
X0278498Y0351968D01*
X0278537Y0351864D01*
X0278573Y0351759D01*
X0278606Y0351652D01*
X0278634Y0351545D01*
X0278659Y0351437D01*
X0278679Y0351327D01*
X0278696Y0351217D01*
X0278709Y0351107D01*
X0278718Y0350996D01*
X0278723Y0350885D01*
X0278724Y0350774D01*
X0278721Y0350663D01*
X0278714Y0350552D01*
X0275713Y0350087D02*
X0275713Y0350052D01*
X0275713Y0265088D01*
X0275715Y0265012D01*
X0275721Y0264936D01*
X0275730Y0264861D01*
X0275744Y0264786D01*
X0275761Y0264712D01*
X0275782Y0264639D01*
X0275806Y0264567D01*
X0275835Y0264496D01*
X0275866Y0264427D01*
X0275901Y0264360D01*
X0275940Y0264295D01*
X0275982Y0264231D01*
X0276027Y0264170D01*
X0276075Y0264111D01*
X0276126Y0264055D01*
X0276180Y0264001D01*
X0276236Y0263950D01*
X0276295Y0263902D01*
X0276356Y0263857D01*
X0276420Y0263815D01*
X0276485Y0263776D01*
X0276552Y0263741D01*
X0276621Y0263710D01*
X0276692Y0263681D01*
X0276764Y0263657D01*
X0276837Y0263636D01*
X0276911Y0263619D01*
X0276986Y0263605D01*
X0277061Y0263596D01*
X0277137Y0263590D01*
X0277213Y0263588D01*
X0277289Y0263590D01*
X0277365Y0263596D01*
X0277440Y0263605D01*
X0277515Y0263619D01*
X0277589Y0263636D01*
X0277662Y0263657D01*
X0277734Y0263681D01*
X0277805Y0263710D01*
X0277874Y0263741D01*
X0277941Y0263776D01*
X0278006Y0263815D01*
X0278070Y0263857D01*
X0278131Y0263902D01*
X0278190Y0263950D01*
X0278246Y0264001D01*
X0278300Y0264055D01*
X0278351Y0264111D01*
X0278399Y0264170D01*
X0278444Y0264231D01*
X0278486Y0264295D01*
X0278525Y0264360D01*
X0278560Y0264427D01*
X0278591Y0264496D01*
X0278620Y0264567D01*
X0278644Y0264639D01*
X0278665Y0264712D01*
X0278682Y0264786D01*
X0278696Y0264861D01*
X0278705Y0264936D01*
X0278711Y0265012D01*
X0278713Y0265088D01*
X0256678Y0285588D02*
X0208213Y0285588D01*
X0206713Y0287088D02*
X0206715Y0287164D01*
X0206721Y0287240D01*
X0206730Y0287315D01*
X0206744Y0287390D01*
X0206761Y0287464D01*
X0206782Y0287537D01*
X0206806Y0287609D01*
X0206835Y0287680D01*
X0206866Y0287749D01*
X0206901Y0287816D01*
X0206940Y0287881D01*
X0206982Y0287945D01*
X0207027Y0288006D01*
X0207075Y0288065D01*
X0207126Y0288121D01*
X0207180Y0288175D01*
X0207236Y0288226D01*
X0207295Y0288274D01*
X0207356Y0288319D01*
X0207420Y0288361D01*
X0207485Y0288400D01*
X0207552Y0288435D01*
X0207621Y0288466D01*
X0207692Y0288495D01*
X0207764Y0288519D01*
X0207837Y0288540D01*
X0207911Y0288557D01*
X0207986Y0288571D01*
X0208061Y0288580D01*
X0208137Y0288586D01*
X0208213Y0288588D01*
X0256713Y0288588D01*
X0256789Y0288586D01*
X0256865Y0288580D01*
X0256940Y0288571D01*
X0257015Y0288557D01*
X0257089Y0288540D01*
X0257162Y0288519D01*
X0257234Y0288495D01*
X0257305Y0288466D01*
X0257374Y0288435D01*
X0257441Y0288400D01*
X0257506Y0288361D01*
X0257570Y0288319D01*
X0257631Y0288274D01*
X0257690Y0288226D01*
X0257746Y0288175D01*
X0257800Y0288121D01*
X0257851Y0288065D01*
X0257899Y0288006D01*
X0257944Y0287945D01*
X0257986Y0287881D01*
X0258025Y0287816D01*
X0258060Y0287749D01*
X0258091Y0287680D01*
X0258120Y0287609D01*
X0258144Y0287537D01*
X0258165Y0287464D01*
X0258182Y0287390D01*
X0258196Y0287315D01*
X0258205Y0287240D01*
X0258211Y0287164D01*
X0258213Y0287088D01*
X0258211Y0287012D01*
X0258205Y0286936D01*
X0258196Y0286861D01*
X0258182Y0286786D01*
X0258165Y0286712D01*
X0258144Y0286639D01*
X0258120Y0286567D01*
X0258091Y0286496D01*
X0258060Y0286427D01*
X0258025Y0286360D01*
X0257986Y0286295D01*
X0257944Y0286231D01*
X0257899Y0286170D01*
X0257851Y0286111D01*
X0257800Y0286055D01*
X0257746Y0286001D01*
X0257690Y0285950D01*
X0257631Y0285902D01*
X0257570Y0285857D01*
X0257506Y0285815D01*
X0257441Y0285776D01*
X0257374Y0285741D01*
X0257305Y0285710D01*
X0257234Y0285681D01*
X0257162Y0285657D01*
X0257089Y0285636D01*
X0257015Y0285619D01*
X0256940Y0285605D01*
X0256865Y0285596D01*
X0256789Y0285590D01*
X0256713Y0285588D01*
X0228713Y0268588D02*
X0208213Y0268588D01*
X0208137Y0268586D01*
X0208061Y0268580D01*
X0207986Y0268571D01*
X0207911Y0268557D01*
X0207837Y0268540D01*
X0207764Y0268519D01*
X0207692Y0268495D01*
X0207621Y0268466D01*
X0207552Y0268435D01*
X0207485Y0268400D01*
X0207420Y0268361D01*
X0207356Y0268319D01*
X0207295Y0268274D01*
X0207236Y0268226D01*
X0207180Y0268175D01*
X0207126Y0268121D01*
X0207075Y0268065D01*
X0207027Y0268006D01*
X0206982Y0267945D01*
X0206940Y0267881D01*
X0206901Y0267816D01*
X0206866Y0267749D01*
X0206835Y0267680D01*
X0206806Y0267609D01*
X0206782Y0267537D01*
X0206761Y0267464D01*
X0206744Y0267390D01*
X0206730Y0267315D01*
X0206721Y0267240D01*
X0206715Y0267164D01*
X0206713Y0267088D01*
X0206715Y0267012D01*
X0206721Y0266936D01*
X0206730Y0266861D01*
X0206744Y0266786D01*
X0206761Y0266712D01*
X0206782Y0266639D01*
X0206806Y0266567D01*
X0206835Y0266496D01*
X0206866Y0266427D01*
X0206901Y0266360D01*
X0206940Y0266295D01*
X0206982Y0266231D01*
X0207027Y0266170D01*
X0207075Y0266111D01*
X0207126Y0266055D01*
X0207180Y0266001D01*
X0207236Y0265950D01*
X0207295Y0265902D01*
X0207356Y0265857D01*
X0207420Y0265815D01*
X0207485Y0265776D01*
X0207552Y0265741D01*
X0207621Y0265710D01*
X0207692Y0265681D01*
X0207764Y0265657D01*
X0207837Y0265636D01*
X0207911Y0265619D01*
X0207986Y0265605D01*
X0208061Y0265596D01*
X0208137Y0265590D01*
X0208213Y0265588D01*
X0228213Y0265588D01*
X0228281Y0265576D01*
X0228350Y0265568D01*
X0228419Y0265564D01*
X0228488Y0265563D01*
X0228557Y0265566D01*
X0228625Y0265573D01*
X0228693Y0265584D01*
X0228761Y0265598D01*
X0228828Y0265616D01*
X0228893Y0265638D01*
X0228958Y0265663D01*
X0229021Y0265691D01*
X0229082Y0265723D01*
X0229141Y0265758D01*
X0229199Y0265797D01*
X0229254Y0265838D01*
X0229307Y0265882D01*
X0229357Y0265929D01*
X0229405Y0265979D01*
X0229450Y0266031D01*
X0229493Y0266086D01*
X0229532Y0266143D01*
X0229568Y0266202D01*
X0229601Y0266263D01*
X0229630Y0266325D01*
X0229656Y0266389D01*
X0229679Y0266454D01*
X0229698Y0266521D01*
X0229713Y0266588D01*
X0229736Y0266662D01*
X0229755Y0266737D01*
X0229770Y0266814D01*
X0229782Y0266890D01*
X0229789Y0266967D01*
X0229793Y0267045D01*
X0229794Y0267123D01*
X0229790Y0267200D01*
X0229783Y0267277D01*
X0229771Y0267354D01*
X0229757Y0267430D01*
X0229738Y0267506D01*
X0229716Y0267580D01*
X0229690Y0267653D01*
X0229660Y0267725D01*
X0229627Y0267795D01*
X0229591Y0267864D01*
X0229551Y0267930D01*
X0229508Y0267995D01*
X0229462Y0268057D01*
X0229413Y0268117D01*
X0229361Y0268175D01*
X0229306Y0268230D01*
X0229249Y0268282D01*
X0229189Y0268332D01*
X0229127Y0268378D01*
X0229062Y0268421D01*
X0228996Y0268462D01*
X0228928Y0268498D01*
X0228858Y0268532D01*
X0228786Y0268562D01*
X0228713Y0268588D01*
X0208213Y0285588D02*
X0208137Y0285590D01*
X0208061Y0285596D01*
X0207986Y0285605D01*
X0207911Y0285619D01*
X0207837Y0285636D01*
X0207764Y0285657D01*
X0207692Y0285681D01*
X0207621Y0285710D01*
X0207552Y0285741D01*
X0207485Y0285776D01*
X0207420Y0285815D01*
X0207356Y0285857D01*
X0207295Y0285902D01*
X0207236Y0285950D01*
X0207180Y0286001D01*
X0207126Y0286055D01*
X0207075Y0286111D01*
X0207027Y0286170D01*
X0206982Y0286231D01*
X0206940Y0286295D01*
X0206901Y0286360D01*
X0206866Y0286427D01*
X0206835Y0286496D01*
X0206806Y0286567D01*
X0206782Y0286639D01*
X0206761Y0286712D01*
X0206744Y0286786D01*
X0206730Y0286861D01*
X0206721Y0286936D01*
X0206715Y0287012D01*
X0206713Y0287088D01*
X0208713Y0328088D02*
X0217178Y0328088D01*
X0218945Y0328820D02*
X0220981Y0330855D01*
X0219981Y0333856D02*
X0220063Y0333923D01*
X0220148Y0333988D01*
X0220234Y0334050D01*
X0220323Y0334108D01*
X0220413Y0334164D01*
X0220506Y0334217D01*
X0220600Y0334266D01*
X0220696Y0334312D01*
X0220793Y0334355D01*
X0220892Y0334394D01*
X0220992Y0334431D01*
X0221093Y0334463D01*
X0221195Y0334492D01*
X0221298Y0334518D01*
X0221402Y0334540D01*
X0221507Y0334559D01*
X0221612Y0334574D01*
X0221718Y0334585D01*
X0221824Y0334593D01*
X0221930Y0334597D01*
X0222037Y0334598D01*
X0222143Y0334595D01*
X0222249Y0334588D01*
X0230213Y0334588D01*
X0230289Y0334586D01*
X0230365Y0334580D01*
X0230440Y0334571D01*
X0230515Y0334557D01*
X0230589Y0334540D01*
X0230662Y0334519D01*
X0230734Y0334495D01*
X0230805Y0334466D01*
X0230874Y0334435D01*
X0230941Y0334400D01*
X0231006Y0334361D01*
X0231070Y0334319D01*
X0231131Y0334274D01*
X0231190Y0334226D01*
X0231246Y0334175D01*
X0231300Y0334121D01*
X0231351Y0334065D01*
X0231399Y0334006D01*
X0231444Y0333945D01*
X0231486Y0333881D01*
X0231525Y0333816D01*
X0231560Y0333749D01*
X0231591Y0333680D01*
X0231620Y0333609D01*
X0231644Y0333537D01*
X0231665Y0333464D01*
X0231682Y0333390D01*
X0231696Y0333315D01*
X0231705Y0333240D01*
X0231711Y0333164D01*
X0231713Y0333088D01*
X0231711Y0333012D01*
X0231705Y0332936D01*
X0231696Y0332861D01*
X0231682Y0332786D01*
X0231665Y0332712D01*
X0231644Y0332639D01*
X0231620Y0332567D01*
X0231591Y0332496D01*
X0231560Y0332427D01*
X0231525Y0332360D01*
X0231486Y0332295D01*
X0231444Y0332231D01*
X0231399Y0332170D01*
X0231351Y0332111D01*
X0231300Y0332055D01*
X0231246Y0332001D01*
X0231190Y0331950D01*
X0231131Y0331902D01*
X0231070Y0331857D01*
X0231006Y0331815D01*
X0230941Y0331776D01*
X0230874Y0331741D01*
X0230805Y0331710D01*
X0230734Y0331681D01*
X0230662Y0331657D01*
X0230589Y0331636D01*
X0230515Y0331619D01*
X0230440Y0331605D01*
X0230365Y0331596D01*
X0230289Y0331590D01*
X0230213Y0331588D01*
X0222749Y0331588D01*
X0222651Y0331586D01*
X0222553Y0331580D01*
X0222455Y0331571D01*
X0222358Y0331557D01*
X0222261Y0331540D01*
X0222165Y0331519D01*
X0222070Y0331494D01*
X0221976Y0331466D01*
X0221884Y0331433D01*
X0221792Y0331398D01*
X0221702Y0331358D01*
X0221614Y0331316D01*
X0221527Y0331269D01*
X0221443Y0331220D01*
X0221360Y0331167D01*
X0221280Y0331111D01*
X0221201Y0331051D01*
X0221125Y0330989D01*
X0221052Y0330924D01*
X0220981Y0330856D01*
X0219981Y0333855D02*
X0217567Y0331441D01*
X0218946Y0328819D02*
X0218875Y0328751D01*
X0218802Y0328686D01*
X0218726Y0328624D01*
X0218647Y0328564D01*
X0218567Y0328508D01*
X0218484Y0328455D01*
X0218400Y0328406D01*
X0218313Y0328359D01*
X0218225Y0328317D01*
X0218135Y0328277D01*
X0218043Y0328242D01*
X0217951Y0328209D01*
X0217857Y0328181D01*
X0217762Y0328156D01*
X0217666Y0328135D01*
X0217569Y0328118D01*
X0217472Y0328104D01*
X0217374Y0328095D01*
X0217276Y0328089D01*
X0217178Y0328087D01*
X0216213Y0331088D02*
X0208713Y0331088D01*
X0208637Y0331086D01*
X0208561Y0331080D01*
X0208486Y0331071D01*
X0208411Y0331057D01*
X0208337Y0331040D01*
X0208264Y0331019D01*
X0208192Y0330995D01*
X0208121Y0330966D01*
X0208052Y0330935D01*
X0207985Y0330900D01*
X0207920Y0330861D01*
X0207856Y0330819D01*
X0207795Y0330774D01*
X0207736Y0330726D01*
X0207680Y0330675D01*
X0207626Y0330621D01*
X0207575Y0330565D01*
X0207527Y0330506D01*
X0207482Y0330445D01*
X0207440Y0330381D01*
X0207401Y0330316D01*
X0207366Y0330249D01*
X0207335Y0330180D01*
X0207306Y0330109D01*
X0207282Y0330037D01*
X0207261Y0329964D01*
X0207244Y0329890D01*
X0207230Y0329815D01*
X0207221Y0329740D01*
X0207215Y0329664D01*
X0207213Y0329588D01*
X0207215Y0329512D01*
X0207221Y0329436D01*
X0207230Y0329361D01*
X0207244Y0329286D01*
X0207261Y0329212D01*
X0207282Y0329139D01*
X0207306Y0329067D01*
X0207335Y0328996D01*
X0207366Y0328927D01*
X0207401Y0328860D01*
X0207440Y0328795D01*
X0207482Y0328731D01*
X0207527Y0328670D01*
X0207575Y0328611D01*
X0207626Y0328555D01*
X0207680Y0328501D01*
X0207736Y0328450D01*
X0207795Y0328402D01*
X0207856Y0328357D01*
X0207920Y0328315D01*
X0207985Y0328276D01*
X0208052Y0328241D01*
X0208121Y0328210D01*
X0208192Y0328181D01*
X0208264Y0328157D01*
X0208337Y0328136D01*
X0208411Y0328119D01*
X0208486Y0328105D01*
X0208561Y0328096D01*
X0208637Y0328090D01*
X0208713Y0328088D01*
X0216213Y0331087D02*
X0216297Y0331078D01*
X0216381Y0331072D01*
X0216466Y0331070D01*
X0216550Y0331072D01*
X0216634Y0331078D01*
X0216718Y0331088D01*
X0216801Y0331102D01*
X0216884Y0331119D01*
X0216966Y0331140D01*
X0217046Y0331166D01*
X0217126Y0331194D01*
X0217204Y0331227D01*
X0217280Y0331263D01*
X0217355Y0331302D01*
X0217427Y0331345D01*
X0217498Y0331391D01*
X0217567Y0331441D01*
X0248713Y0369587D02*
X0255499Y0369587D01*
X0255600Y0369588D01*
X0255702Y0369586D01*
X0255803Y0369579D01*
X0255904Y0369570D01*
X0256005Y0369556D01*
X0256105Y0369538D01*
X0256204Y0369517D01*
X0256303Y0369492D01*
X0256400Y0369464D01*
X0256497Y0369431D01*
X0256592Y0369396D01*
X0256686Y0369356D01*
X0256778Y0369314D01*
X0256868Y0369267D01*
X0256957Y0369218D01*
X0257044Y0369165D01*
X0257129Y0369109D01*
X0257211Y0369050D01*
X0257292Y0368988D01*
X0257369Y0368922D01*
X0257445Y0368854D01*
X0260067Y0370234D02*
X0259958Y0370348D01*
X0259847Y0370459D01*
X0259733Y0370568D01*
X0259617Y0370674D01*
X0259498Y0370777D01*
X0259377Y0370877D01*
X0259253Y0370975D01*
X0259127Y0371069D01*
X0258999Y0371160D01*
X0258868Y0371248D01*
X0258736Y0371334D01*
X0258602Y0371416D01*
X0258465Y0371494D01*
X0258327Y0371570D01*
X0258187Y0371642D01*
X0258046Y0371711D01*
X0257903Y0371776D01*
X0257758Y0371838D01*
X0257612Y0371897D01*
X0257464Y0371952D01*
X0257316Y0372003D01*
X0257166Y0372051D01*
X0257015Y0372095D01*
X0256863Y0372136D01*
X0256710Y0372173D01*
X0256556Y0372207D01*
X0256402Y0372237D01*
X0256246Y0372263D01*
X0256091Y0372285D01*
X0255934Y0372304D01*
X0255778Y0372319D01*
X0255621Y0372330D01*
X0255463Y0372338D01*
X0255463Y0372337D02*
X0248713Y0372337D01*
X0248645Y0372335D01*
X0248578Y0372330D01*
X0248511Y0372321D01*
X0248444Y0372308D01*
X0248379Y0372291D01*
X0248314Y0372272D01*
X0248250Y0372248D01*
X0248188Y0372221D01*
X0248127Y0372191D01*
X0248069Y0372158D01*
X0248012Y0372122D01*
X0247957Y0372082D01*
X0247904Y0372040D01*
X0247853Y0371994D01*
X0247806Y0371947D01*
X0247760Y0371896D01*
X0247718Y0371843D01*
X0247678Y0371788D01*
X0247642Y0371731D01*
X0247609Y0371673D01*
X0247579Y0371612D01*
X0247552Y0371550D01*
X0247528Y0371486D01*
X0247509Y0371421D01*
X0247492Y0371356D01*
X0247479Y0371289D01*
X0247470Y0371222D01*
X0247465Y0371155D01*
X0247463Y0371087D01*
X0247458Y0371015D01*
X0247457Y0370943D01*
X0247460Y0370870D01*
X0247467Y0370798D01*
X0247477Y0370727D01*
X0247491Y0370656D01*
X0247509Y0370586D01*
X0247531Y0370517D01*
X0247556Y0370449D01*
X0247584Y0370383D01*
X0247616Y0370318D01*
X0247652Y0370255D01*
X0247690Y0370194D01*
X0247732Y0370135D01*
X0247777Y0370078D01*
X0247825Y0370024D01*
X0247875Y0369972D01*
X0247928Y0369923D01*
X0247984Y0369877D01*
X0248042Y0369833D01*
X0248102Y0369793D01*
X0248164Y0369756D01*
X0248228Y0369723D01*
X0248294Y0369693D01*
X0248361Y0369666D01*
X0248430Y0369643D01*
X0248499Y0369623D01*
X0248570Y0369607D01*
X0248641Y0369595D01*
X0248713Y0369587D01*
X0274981Y0351820D02*
X0275049Y0351749D01*
X0275114Y0351676D01*
X0275176Y0351600D01*
X0275236Y0351521D01*
X0275292Y0351441D01*
X0275345Y0351358D01*
X0275394Y0351274D01*
X0275441Y0351187D01*
X0275483Y0351099D01*
X0275523Y0351009D01*
X0275558Y0350917D01*
X0275591Y0350825D01*
X0275619Y0350731D01*
X0275644Y0350636D01*
X0275665Y0350540D01*
X0275682Y0350443D01*
X0275696Y0350346D01*
X0275705Y0350248D01*
X0275711Y0350150D01*
X0275713Y0350052D01*
X0101651Y0222087D02*
X0101651Y0208587D01*
X0101649Y0208511D01*
X0101643Y0208435D01*
X0101634Y0208360D01*
X0101620Y0208285D01*
X0101603Y0208211D01*
X0101582Y0208138D01*
X0101558Y0208066D01*
X0101529Y0207995D01*
X0101498Y0207926D01*
X0101463Y0207859D01*
X0101424Y0207794D01*
X0101382Y0207730D01*
X0101337Y0207669D01*
X0101289Y0207610D01*
X0101238Y0207554D01*
X0101184Y0207500D01*
X0101128Y0207449D01*
X0101069Y0207401D01*
X0101008Y0207356D01*
X0100944Y0207314D01*
X0100879Y0207275D01*
X0100812Y0207240D01*
X0100743Y0207209D01*
X0100672Y0207180D01*
X0100600Y0207156D01*
X0100527Y0207135D01*
X0100453Y0207118D01*
X0100378Y0207104D01*
X0100303Y0207095D01*
X0100227Y0207089D01*
X0100151Y0207087D01*
X0100075Y0207089D01*
X0099999Y0207095D01*
X0099924Y0207104D01*
X0099849Y0207118D01*
X0099775Y0207135D01*
X0099702Y0207156D01*
X0099630Y0207180D01*
X0099559Y0207209D01*
X0099490Y0207240D01*
X0099423Y0207275D01*
X0099358Y0207314D01*
X0099294Y0207356D01*
X0099233Y0207401D01*
X0099174Y0207449D01*
X0099118Y0207500D01*
X0099064Y0207554D01*
X0099013Y0207610D01*
X0098965Y0207669D01*
X0098920Y0207730D01*
X0098878Y0207794D01*
X0098839Y0207859D01*
X0098804Y0207926D01*
X0098773Y0207995D01*
X0098744Y0208066D01*
X0098720Y0208138D01*
X0098699Y0208211D01*
X0098682Y0208285D01*
X0098668Y0208360D01*
X0098659Y0208435D01*
X0098653Y0208511D01*
X0098651Y0208587D01*
X0098651Y0219087D01*
X0098649Y0219174D01*
X0098643Y0219261D01*
X0098634Y0219348D01*
X0098621Y0219434D01*
X0098604Y0219520D01*
X0098583Y0219605D01*
X0098558Y0219688D01*
X0098530Y0219771D01*
X0098499Y0219852D01*
X0098464Y0219932D01*
X0098425Y0220010D01*
X0098383Y0220087D01*
X0098338Y0220162D01*
X0098289Y0220234D01*
X0098238Y0220305D01*
X0098183Y0220373D01*
X0098126Y0220438D01*
X0098065Y0220501D01*
X0098002Y0220562D01*
X0097937Y0220619D01*
X0097869Y0220674D01*
X0097798Y0220725D01*
X0097726Y0220774D01*
X0097651Y0220819D01*
X0097574Y0220861D01*
X0097496Y0220900D01*
X0097416Y0220935D01*
X0097335Y0220966D01*
X0097252Y0220994D01*
X0097169Y0221019D01*
X0097084Y0221040D01*
X0096998Y0221057D01*
X0096912Y0221070D01*
X0096825Y0221079D01*
X0096738Y0221085D01*
X0096651Y0221087D01*
X0082151Y0221087D01*
X0082049Y0221074D01*
X0081947Y0221066D01*
X0081845Y0221061D01*
X0081742Y0221060D01*
X0081640Y0221063D01*
X0081538Y0221071D01*
X0081436Y0221082D01*
X0081335Y0221097D01*
X0081234Y0221116D01*
X0081134Y0221139D01*
X0081035Y0221166D01*
X0080937Y0221196D01*
X0080841Y0221230D01*
X0080746Y0221268D01*
X0080652Y0221310D01*
X0080560Y0221355D01*
X0080470Y0221404D01*
X0080382Y0221456D01*
X0080296Y0221512D01*
X0080212Y0221570D01*
X0080130Y0221632D01*
X0080051Y0221698D01*
X0079975Y0221766D01*
X0079901Y0221837D01*
X0079830Y0221911D01*
X0079762Y0221987D01*
X0079696Y0222066D01*
X0079634Y0222148D01*
X0079576Y0222232D01*
X0079520Y0222318D01*
X0079468Y0222406D01*
X0079419Y0222496D01*
X0079374Y0222588D01*
X0079332Y0222682D01*
X0079294Y0222777D01*
X0079260Y0222873D01*
X0079230Y0222971D01*
X0079203Y0223070D01*
X0079180Y0223170D01*
X0079161Y0223271D01*
X0079146Y0223372D01*
X0079135Y0223474D01*
X0079127Y0223576D01*
X0079124Y0223678D01*
X0079125Y0223781D01*
X0079130Y0223883D01*
X0079138Y0223985D01*
X0079151Y0224087D01*
X0079151Y0236087D01*
X0079153Y0236163D01*
X0079159Y0236239D01*
X0079168Y0236314D01*
X0079182Y0236389D01*
X0079199Y0236463D01*
X0079220Y0236536D01*
X0079244Y0236608D01*
X0079273Y0236679D01*
X0079304Y0236748D01*
X0079339Y0236815D01*
X0079378Y0236880D01*
X0079420Y0236944D01*
X0079465Y0237005D01*
X0079513Y0237064D01*
X0079564Y0237120D01*
X0079618Y0237174D01*
X0079674Y0237225D01*
X0079733Y0237273D01*
X0079794Y0237318D01*
X0079858Y0237360D01*
X0079923Y0237399D01*
X0079990Y0237434D01*
X0080059Y0237465D01*
X0080130Y0237494D01*
X0080202Y0237518D01*
X0080275Y0237539D01*
X0080349Y0237556D01*
X0080424Y0237570D01*
X0080499Y0237579D01*
X0080575Y0237585D01*
X0080651Y0237587D01*
X0080727Y0237585D01*
X0080803Y0237579D01*
X0080878Y0237570D01*
X0080953Y0237556D01*
X0081027Y0237539D01*
X0081100Y0237518D01*
X0081172Y0237494D01*
X0081243Y0237465D01*
X0081312Y0237434D01*
X0081379Y0237399D01*
X0081444Y0237360D01*
X0081508Y0237318D01*
X0081569Y0237273D01*
X0081628Y0237225D01*
X0081684Y0237174D01*
X0081738Y0237120D01*
X0081789Y0237064D01*
X0081837Y0237005D01*
X0081882Y0236944D01*
X0081924Y0236880D01*
X0081963Y0236815D01*
X0081998Y0236748D01*
X0082029Y0236679D01*
X0082058Y0236608D01*
X0082082Y0236536D01*
X0082103Y0236463D01*
X0082120Y0236389D01*
X0082134Y0236314D01*
X0082143Y0236239D01*
X0082149Y0236163D01*
X0082151Y0236087D01*
X0082151Y0226087D01*
X0082153Y0226000D01*
X0082159Y0225913D01*
X0082168Y0225826D01*
X0082181Y0225740D01*
X0082198Y0225654D01*
X0082219Y0225569D01*
X0082244Y0225486D01*
X0082272Y0225403D01*
X0082303Y0225322D01*
X0082338Y0225242D01*
X0082377Y0225164D01*
X0082419Y0225087D01*
X0082464Y0225012D01*
X0082513Y0224940D01*
X0082564Y0224869D01*
X0082619Y0224801D01*
X0082676Y0224736D01*
X0082737Y0224673D01*
X0082800Y0224612D01*
X0082865Y0224555D01*
X0082933Y0224500D01*
X0083004Y0224449D01*
X0083076Y0224400D01*
X0083151Y0224355D01*
X0083228Y0224313D01*
X0083306Y0224274D01*
X0083386Y0224239D01*
X0083467Y0224208D01*
X0083550Y0224180D01*
X0083633Y0224155D01*
X0083718Y0224134D01*
X0083804Y0224117D01*
X0083890Y0224104D01*
X0083977Y0224095D01*
X0084064Y0224089D01*
X0084151Y0224087D01*
X0098651Y0224087D01*
X0098749Y0224105D01*
X0098849Y0224119D01*
X0098948Y0224129D01*
X0099048Y0224135D01*
X0099148Y0224137D01*
X0099248Y0224135D01*
X0099348Y0224129D01*
X0099448Y0224120D01*
X0099547Y0224106D01*
X0099646Y0224089D01*
X0099744Y0224067D01*
X0099841Y0224042D01*
X0099936Y0224013D01*
X0100031Y0223980D01*
X0100124Y0223944D01*
X0100216Y0223904D01*
X0100306Y0223860D01*
X0100395Y0223813D01*
X0100481Y0223763D01*
X0100565Y0223709D01*
X0100648Y0223652D01*
X0100728Y0223591D01*
X0100805Y0223528D01*
X0100880Y0223461D01*
X0100952Y0223392D01*
X0101022Y0223320D01*
X0101088Y0223245D01*
X0101152Y0223168D01*
X0101212Y0223088D01*
X0101270Y0223006D01*
X0101324Y0222922D01*
X0101375Y0222835D01*
X0101422Y0222747D01*
X0101466Y0222657D01*
X0101506Y0222565D01*
X0101542Y0222472D01*
X0101575Y0222378D01*
X0101605Y0222282D01*
X0101630Y0222185D01*
X0101651Y0222087D01*
X0082151Y0265088D02*
X0082151Y0350552D01*
X0082151Y0350587D01*
X0081418Y0352820D02*
X0063504Y0370234D01*
X0060883Y0368855D02*
X0078418Y0351820D01*
X0081419Y0352820D02*
X0081489Y0352734D01*
X0081557Y0352646D01*
X0081621Y0352555D01*
X0081682Y0352462D01*
X0081739Y0352367D01*
X0081793Y0352270D01*
X0081844Y0352171D01*
X0081891Y0352070D01*
X0081935Y0351968D01*
X0081974Y0351864D01*
X0082010Y0351759D01*
X0082043Y0351652D01*
X0082071Y0351545D01*
X0082096Y0351437D01*
X0082116Y0351327D01*
X0082133Y0351217D01*
X0082146Y0351107D01*
X0082155Y0350996D01*
X0082160Y0350885D01*
X0082161Y0350774D01*
X0082158Y0350663D01*
X0082151Y0350552D01*
X0079151Y0350087D02*
X0079151Y0350052D01*
X0079151Y0265088D01*
X0079153Y0265012D01*
X0079159Y0264936D01*
X0079168Y0264861D01*
X0079182Y0264786D01*
X0079199Y0264712D01*
X0079220Y0264639D01*
X0079244Y0264567D01*
X0079273Y0264496D01*
X0079304Y0264427D01*
X0079339Y0264360D01*
X0079378Y0264295D01*
X0079420Y0264231D01*
X0079465Y0264170D01*
X0079513Y0264111D01*
X0079564Y0264055D01*
X0079618Y0264001D01*
X0079674Y0263950D01*
X0079733Y0263902D01*
X0079794Y0263857D01*
X0079858Y0263815D01*
X0079923Y0263776D01*
X0079990Y0263741D01*
X0080059Y0263710D01*
X0080130Y0263681D01*
X0080202Y0263657D01*
X0080275Y0263636D01*
X0080349Y0263619D01*
X0080424Y0263605D01*
X0080499Y0263596D01*
X0080575Y0263590D01*
X0080651Y0263588D01*
X0080727Y0263590D01*
X0080803Y0263596D01*
X0080878Y0263605D01*
X0080953Y0263619D01*
X0081027Y0263636D01*
X0081100Y0263657D01*
X0081172Y0263681D01*
X0081243Y0263710D01*
X0081312Y0263741D01*
X0081379Y0263776D01*
X0081444Y0263815D01*
X0081508Y0263857D01*
X0081569Y0263902D01*
X0081628Y0263950D01*
X0081684Y0264001D01*
X0081738Y0264055D01*
X0081789Y0264111D01*
X0081837Y0264170D01*
X0081882Y0264231D01*
X0081924Y0264295D01*
X0081963Y0264360D01*
X0081998Y0264427D01*
X0082029Y0264496D01*
X0082058Y0264567D01*
X0082082Y0264639D01*
X0082103Y0264712D01*
X0082120Y0264786D01*
X0082134Y0264861D01*
X0082143Y0264936D01*
X0082149Y0265012D01*
X0082151Y0265088D01*
X0060115Y0285588D02*
X0011651Y0285588D01*
X0010151Y0287088D02*
X0010153Y0287164D01*
X0010159Y0287240D01*
X0010168Y0287315D01*
X0010182Y0287390D01*
X0010199Y0287464D01*
X0010220Y0287537D01*
X0010244Y0287609D01*
X0010273Y0287680D01*
X0010304Y0287749D01*
X0010339Y0287816D01*
X0010378Y0287881D01*
X0010420Y0287945D01*
X0010465Y0288006D01*
X0010513Y0288065D01*
X0010564Y0288121D01*
X0010618Y0288175D01*
X0010674Y0288226D01*
X0010733Y0288274D01*
X0010794Y0288319D01*
X0010858Y0288361D01*
X0010923Y0288400D01*
X0010990Y0288435D01*
X0011059Y0288466D01*
X0011130Y0288495D01*
X0011202Y0288519D01*
X0011275Y0288540D01*
X0011349Y0288557D01*
X0011424Y0288571D01*
X0011499Y0288580D01*
X0011575Y0288586D01*
X0011651Y0288588D01*
X0060151Y0288588D01*
X0060227Y0288586D01*
X0060303Y0288580D01*
X0060378Y0288571D01*
X0060453Y0288557D01*
X0060527Y0288540D01*
X0060600Y0288519D01*
X0060672Y0288495D01*
X0060743Y0288466D01*
X0060812Y0288435D01*
X0060879Y0288400D01*
X0060944Y0288361D01*
X0061008Y0288319D01*
X0061069Y0288274D01*
X0061128Y0288226D01*
X0061184Y0288175D01*
X0061238Y0288121D01*
X0061289Y0288065D01*
X0061337Y0288006D01*
X0061382Y0287945D01*
X0061424Y0287881D01*
X0061463Y0287816D01*
X0061498Y0287749D01*
X0061529Y0287680D01*
X0061558Y0287609D01*
X0061582Y0287537D01*
X0061603Y0287464D01*
X0061620Y0287390D01*
X0061634Y0287315D01*
X0061643Y0287240D01*
X0061649Y0287164D01*
X0061651Y0287088D01*
X0061649Y0287012D01*
X0061643Y0286936D01*
X0061634Y0286861D01*
X0061620Y0286786D01*
X0061603Y0286712D01*
X0061582Y0286639D01*
X0061558Y0286567D01*
X0061529Y0286496D01*
X0061498Y0286427D01*
X0061463Y0286360D01*
X0061424Y0286295D01*
X0061382Y0286231D01*
X0061337Y0286170D01*
X0061289Y0286111D01*
X0061238Y0286055D01*
X0061184Y0286001D01*
X0061128Y0285950D01*
X0061069Y0285902D01*
X0061008Y0285857D01*
X0060944Y0285815D01*
X0060879Y0285776D01*
X0060812Y0285741D01*
X0060743Y0285710D01*
X0060672Y0285681D01*
X0060600Y0285657D01*
X0060527Y0285636D01*
X0060453Y0285619D01*
X0060378Y0285605D01*
X0060303Y0285596D01*
X0060227Y0285590D01*
X0060151Y0285588D01*
X0032151Y0268588D02*
X0011651Y0268588D01*
X0011575Y0268586D01*
X0011499Y0268580D01*
X0011424Y0268571D01*
X0011349Y0268557D01*
X0011275Y0268540D01*
X0011202Y0268519D01*
X0011130Y0268495D01*
X0011059Y0268466D01*
X0010990Y0268435D01*
X0010923Y0268400D01*
X0010858Y0268361D01*
X0010794Y0268319D01*
X0010733Y0268274D01*
X0010674Y0268226D01*
X0010618Y0268175D01*
X0010564Y0268121D01*
X0010513Y0268065D01*
X0010465Y0268006D01*
X0010420Y0267945D01*
X0010378Y0267881D01*
X0010339Y0267816D01*
X0010304Y0267749D01*
X0010273Y0267680D01*
X0010244Y0267609D01*
X0010220Y0267537D01*
X0010199Y0267464D01*
X0010182Y0267390D01*
X0010168Y0267315D01*
X0010159Y0267240D01*
X0010153Y0267164D01*
X0010151Y0267088D01*
X0010153Y0267012D01*
X0010159Y0266936D01*
X0010168Y0266861D01*
X0010182Y0266786D01*
X0010199Y0266712D01*
X0010220Y0266639D01*
X0010244Y0266567D01*
X0010273Y0266496D01*
X0010304Y0266427D01*
X0010339Y0266360D01*
X0010378Y0266295D01*
X0010420Y0266231D01*
X0010465Y0266170D01*
X0010513Y0266111D01*
X0010564Y0266055D01*
X0010618Y0266001D01*
X0010674Y0265950D01*
X0010733Y0265902D01*
X0010794Y0265857D01*
X0010858Y0265815D01*
X0010923Y0265776D01*
X0010990Y0265741D01*
X0011059Y0265710D01*
X0011130Y0265681D01*
X0011202Y0265657D01*
X0011275Y0265636D01*
X0011349Y0265619D01*
X0011424Y0265605D01*
X0011499Y0265596D01*
X0011575Y0265590D01*
X0011651Y0265588D01*
X0031651Y0265588D01*
X0031719Y0265576D01*
X0031788Y0265568D01*
X0031857Y0265564D01*
X0031926Y0265563D01*
X0031995Y0265566D01*
X0032063Y0265573D01*
X0032131Y0265584D01*
X0032199Y0265598D01*
X0032266Y0265616D01*
X0032331Y0265638D01*
X0032396Y0265663D01*
X0032459Y0265691D01*
X0032520Y0265723D01*
X0032579Y0265758D01*
X0032637Y0265797D01*
X0032692Y0265838D01*
X0032745Y0265882D01*
X0032795Y0265929D01*
X0032843Y0265979D01*
X0032888Y0266031D01*
X0032931Y0266086D01*
X0032970Y0266143D01*
X0033006Y0266202D01*
X0033039Y0266263D01*
X0033068Y0266325D01*
X0033094Y0266389D01*
X0033117Y0266454D01*
X0033136Y0266521D01*
X0033151Y0266588D01*
X0033174Y0266662D01*
X0033193Y0266737D01*
X0033208Y0266814D01*
X0033220Y0266890D01*
X0033227Y0266967D01*
X0033231Y0267045D01*
X0033232Y0267123D01*
X0033228Y0267200D01*
X0033221Y0267277D01*
X0033209Y0267354D01*
X0033195Y0267430D01*
X0033176Y0267506D01*
X0033154Y0267580D01*
X0033128Y0267653D01*
X0033098Y0267725D01*
X0033065Y0267795D01*
X0033029Y0267864D01*
X0032989Y0267930D01*
X0032946Y0267995D01*
X0032900Y0268057D01*
X0032851Y0268117D01*
X0032799Y0268175D01*
X0032744Y0268230D01*
X0032687Y0268282D01*
X0032627Y0268332D01*
X0032565Y0268378D01*
X0032500Y0268421D01*
X0032434Y0268462D01*
X0032366Y0268498D01*
X0032296Y0268532D01*
X0032224Y0268562D01*
X0032151Y0268588D01*
X0011651Y0285588D02*
X0011575Y0285590D01*
X0011499Y0285596D01*
X0011424Y0285605D01*
X0011349Y0285619D01*
X0011275Y0285636D01*
X0011202Y0285657D01*
X0011130Y0285681D01*
X0011059Y0285710D01*
X0010990Y0285741D01*
X0010923Y0285776D01*
X0010858Y0285815D01*
X0010794Y0285857D01*
X0010733Y0285902D01*
X0010674Y0285950D01*
X0010618Y0286001D01*
X0010564Y0286055D01*
X0010513Y0286111D01*
X0010465Y0286170D01*
X0010420Y0286231D01*
X0010378Y0286295D01*
X0010339Y0286360D01*
X0010304Y0286427D01*
X0010273Y0286496D01*
X0010244Y0286567D01*
X0010220Y0286639D01*
X0010199Y0286712D01*
X0010182Y0286786D01*
X0010168Y0286861D01*
X0010159Y0286936D01*
X0010153Y0287012D01*
X0010151Y0287088D01*
X0012151Y0328088D02*
X0020615Y0328088D01*
X0022383Y0328820D02*
X0024418Y0330855D01*
X0023418Y0333856D02*
X0023500Y0333923D01*
X0023585Y0333988D01*
X0023671Y0334050D01*
X0023760Y0334108D01*
X0023850Y0334164D01*
X0023943Y0334217D01*
X0024037Y0334266D01*
X0024133Y0334312D01*
X0024230Y0334355D01*
X0024329Y0334394D01*
X0024429Y0334431D01*
X0024530Y0334463D01*
X0024632Y0334492D01*
X0024735Y0334518D01*
X0024839Y0334540D01*
X0024944Y0334559D01*
X0025049Y0334574D01*
X0025155Y0334585D01*
X0025261Y0334593D01*
X0025367Y0334597D01*
X0025474Y0334598D01*
X0025580Y0334595D01*
X0025686Y0334588D01*
X0033651Y0334588D01*
X0033727Y0334586D01*
X0033803Y0334580D01*
X0033878Y0334571D01*
X0033953Y0334557D01*
X0034027Y0334540D01*
X0034100Y0334519D01*
X0034172Y0334495D01*
X0034243Y0334466D01*
X0034312Y0334435D01*
X0034379Y0334400D01*
X0034444Y0334361D01*
X0034508Y0334319D01*
X0034569Y0334274D01*
X0034628Y0334226D01*
X0034684Y0334175D01*
X0034738Y0334121D01*
X0034789Y0334065D01*
X0034837Y0334006D01*
X0034882Y0333945D01*
X0034924Y0333881D01*
X0034963Y0333816D01*
X0034998Y0333749D01*
X0035029Y0333680D01*
X0035058Y0333609D01*
X0035082Y0333537D01*
X0035103Y0333464D01*
X0035120Y0333390D01*
X0035134Y0333315D01*
X0035143Y0333240D01*
X0035149Y0333164D01*
X0035151Y0333088D01*
X0035149Y0333012D01*
X0035143Y0332936D01*
X0035134Y0332861D01*
X0035120Y0332786D01*
X0035103Y0332712D01*
X0035082Y0332639D01*
X0035058Y0332567D01*
X0035029Y0332496D01*
X0034998Y0332427D01*
X0034963Y0332360D01*
X0034924Y0332295D01*
X0034882Y0332231D01*
X0034837Y0332170D01*
X0034789Y0332111D01*
X0034738Y0332055D01*
X0034684Y0332001D01*
X0034628Y0331950D01*
X0034569Y0331902D01*
X0034508Y0331857D01*
X0034444Y0331815D01*
X0034379Y0331776D01*
X0034312Y0331741D01*
X0034243Y0331710D01*
X0034172Y0331681D01*
X0034100Y0331657D01*
X0034027Y0331636D01*
X0033953Y0331619D01*
X0033878Y0331605D01*
X0033803Y0331596D01*
X0033727Y0331590D01*
X0033651Y0331588D01*
X0026186Y0331588D01*
X0026088Y0331586D01*
X0025990Y0331580D01*
X0025892Y0331571D01*
X0025795Y0331557D01*
X0025698Y0331540D01*
X0025602Y0331519D01*
X0025507Y0331494D01*
X0025413Y0331466D01*
X0025321Y0331433D01*
X0025229Y0331398D01*
X0025139Y0331358D01*
X0025051Y0331316D01*
X0024964Y0331269D01*
X0024880Y0331220D01*
X0024797Y0331167D01*
X0024717Y0331111D01*
X0024638Y0331051D01*
X0024562Y0330989D01*
X0024489Y0330924D01*
X0024418Y0330856D01*
X0023418Y0333855D02*
X0021004Y0331441D01*
X0022383Y0328819D02*
X0022312Y0328751D01*
X0022239Y0328686D01*
X0022163Y0328624D01*
X0022084Y0328564D01*
X0022004Y0328508D01*
X0021921Y0328455D01*
X0021837Y0328406D01*
X0021750Y0328359D01*
X0021662Y0328317D01*
X0021572Y0328277D01*
X0021480Y0328242D01*
X0021388Y0328209D01*
X0021294Y0328181D01*
X0021199Y0328156D01*
X0021103Y0328135D01*
X0021006Y0328118D01*
X0020909Y0328104D01*
X0020811Y0328095D01*
X0020713Y0328089D01*
X0020615Y0328087D01*
X0019651Y0331088D02*
X0012151Y0331088D01*
X0012075Y0331086D01*
X0011999Y0331080D01*
X0011924Y0331071D01*
X0011849Y0331057D01*
X0011775Y0331040D01*
X0011702Y0331019D01*
X0011630Y0330995D01*
X0011559Y0330966D01*
X0011490Y0330935D01*
X0011423Y0330900D01*
X0011358Y0330861D01*
X0011294Y0330819D01*
X0011233Y0330774D01*
X0011174Y0330726D01*
X0011118Y0330675D01*
X0011064Y0330621D01*
X0011013Y0330565D01*
X0010965Y0330506D01*
X0010920Y0330445D01*
X0010878Y0330381D01*
X0010839Y0330316D01*
X0010804Y0330249D01*
X0010773Y0330180D01*
X0010744Y0330109D01*
X0010720Y0330037D01*
X0010699Y0329964D01*
X0010682Y0329890D01*
X0010668Y0329815D01*
X0010659Y0329740D01*
X0010653Y0329664D01*
X0010651Y0329588D01*
X0010653Y0329512D01*
X0010659Y0329436D01*
X0010668Y0329361D01*
X0010682Y0329286D01*
X0010699Y0329212D01*
X0010720Y0329139D01*
X0010744Y0329067D01*
X0010773Y0328996D01*
X0010804Y0328927D01*
X0010839Y0328860D01*
X0010878Y0328795D01*
X0010920Y0328731D01*
X0010965Y0328670D01*
X0011013Y0328611D01*
X0011064Y0328555D01*
X0011118Y0328501D01*
X0011174Y0328450D01*
X0011233Y0328402D01*
X0011294Y0328357D01*
X0011358Y0328315D01*
X0011423Y0328276D01*
X0011490Y0328241D01*
X0011559Y0328210D01*
X0011630Y0328181D01*
X0011702Y0328157D01*
X0011775Y0328136D01*
X0011849Y0328119D01*
X0011924Y0328105D01*
X0011999Y0328096D01*
X0012075Y0328090D01*
X0012151Y0328088D01*
X0019651Y0331087D02*
X0019735Y0331078D01*
X0019819Y0331072D01*
X0019904Y0331070D01*
X0019988Y0331072D01*
X0020072Y0331078D01*
X0020156Y0331088D01*
X0020239Y0331102D01*
X0020322Y0331119D01*
X0020404Y0331140D01*
X0020484Y0331166D01*
X0020564Y0331194D01*
X0020642Y0331227D01*
X0020718Y0331263D01*
X0020793Y0331302D01*
X0020865Y0331345D01*
X0020936Y0331391D01*
X0021005Y0331441D01*
X0058900Y0372338D02*
X0059058Y0372330D01*
X0059215Y0372319D01*
X0059371Y0372304D01*
X0059528Y0372285D01*
X0059683Y0372263D01*
X0059839Y0372237D01*
X0059993Y0372207D01*
X0060147Y0372173D01*
X0060300Y0372136D01*
X0060452Y0372095D01*
X0060603Y0372051D01*
X0060753Y0372003D01*
X0060901Y0371952D01*
X0061049Y0371897D01*
X0061195Y0371838D01*
X0061340Y0371776D01*
X0061483Y0371711D01*
X0061624Y0371642D01*
X0061764Y0371570D01*
X0061902Y0371494D01*
X0062039Y0371416D01*
X0062173Y0371334D01*
X0062305Y0371248D01*
X0062436Y0371160D01*
X0062564Y0371069D01*
X0062690Y0370975D01*
X0062814Y0370877D01*
X0062935Y0370777D01*
X0063054Y0370674D01*
X0063170Y0370568D01*
X0063284Y0370459D01*
X0063395Y0370348D01*
X0063504Y0370234D01*
X0058936Y0369587D02*
X0052151Y0369587D01*
X0052079Y0369595D01*
X0052008Y0369607D01*
X0051937Y0369623D01*
X0051868Y0369643D01*
X0051799Y0369666D01*
X0051732Y0369693D01*
X0051666Y0369723D01*
X0051602Y0369756D01*
X0051540Y0369793D01*
X0051480Y0369833D01*
X0051422Y0369877D01*
X0051366Y0369923D01*
X0051313Y0369972D01*
X0051263Y0370024D01*
X0051215Y0370078D01*
X0051170Y0370135D01*
X0051128Y0370194D01*
X0051090Y0370255D01*
X0051054Y0370318D01*
X0051022Y0370383D01*
X0050994Y0370449D01*
X0050969Y0370517D01*
X0050947Y0370586D01*
X0050929Y0370656D01*
X0050915Y0370727D01*
X0050905Y0370798D01*
X0050898Y0370870D01*
X0050895Y0370943D01*
X0050896Y0371015D01*
X0050901Y0371087D01*
X0050903Y0371155D01*
X0050908Y0371222D01*
X0050917Y0371289D01*
X0050930Y0371356D01*
X0050947Y0371421D01*
X0050966Y0371486D01*
X0050990Y0371550D01*
X0051017Y0371612D01*
X0051047Y0371673D01*
X0051080Y0371731D01*
X0051116Y0371788D01*
X0051156Y0371843D01*
X0051198Y0371896D01*
X0051244Y0371947D01*
X0051291Y0371994D01*
X0051342Y0372040D01*
X0051395Y0372082D01*
X0051450Y0372122D01*
X0051507Y0372158D01*
X0051565Y0372191D01*
X0051626Y0372221D01*
X0051688Y0372248D01*
X0051752Y0372272D01*
X0051817Y0372291D01*
X0051882Y0372308D01*
X0051949Y0372321D01*
X0052016Y0372330D01*
X0052083Y0372335D01*
X0052151Y0372337D01*
X0058901Y0372337D01*
X0058937Y0369587D02*
X0059038Y0369588D01*
X0059140Y0369586D01*
X0059241Y0369579D01*
X0059342Y0369570D01*
X0059443Y0369556D01*
X0059543Y0369538D01*
X0059642Y0369517D01*
X0059741Y0369492D01*
X0059838Y0369464D01*
X0059935Y0369431D01*
X0060030Y0369396D01*
X0060124Y0369356D01*
X0060216Y0369314D01*
X0060306Y0369267D01*
X0060395Y0369218D01*
X0060482Y0369165D01*
X0060567Y0369109D01*
X0060649Y0369050D01*
X0060730Y0368988D01*
X0060807Y0368922D01*
X0060883Y0368854D01*
X0078419Y0351820D02*
X0078487Y0351749D01*
X0078552Y0351676D01*
X0078614Y0351600D01*
X0078674Y0351521D01*
X0078730Y0351441D01*
X0078783Y0351358D01*
X0078832Y0351274D01*
X0078879Y0351187D01*
X0078921Y0351099D01*
X0078961Y0351009D01*
X0078996Y0350917D01*
X0079029Y0350825D01*
X0079057Y0350731D01*
X0079082Y0350636D01*
X0079103Y0350540D01*
X0079120Y0350443D01*
X0079134Y0350346D01*
X0079143Y0350248D01*
X0079149Y0350150D01*
X0079151Y0350052D01*
X0058901Y0175650D02*
X0052151Y0175650D01*
X0052083Y0175648D01*
X0052016Y0175643D01*
X0051949Y0175634D01*
X0051882Y0175621D01*
X0051817Y0175604D01*
X0051752Y0175585D01*
X0051688Y0175561D01*
X0051626Y0175534D01*
X0051565Y0175504D01*
X0051507Y0175471D01*
X0051450Y0175435D01*
X0051395Y0175395D01*
X0051342Y0175353D01*
X0051291Y0175307D01*
X0051244Y0175260D01*
X0051198Y0175209D01*
X0051156Y0175156D01*
X0051116Y0175101D01*
X0051080Y0175044D01*
X0051047Y0174986D01*
X0051017Y0174925D01*
X0050990Y0174863D01*
X0050966Y0174799D01*
X0050947Y0174734D01*
X0050930Y0174669D01*
X0050917Y0174602D01*
X0050908Y0174535D01*
X0050903Y0174468D01*
X0050901Y0174400D01*
X0050896Y0174328D01*
X0050895Y0174256D01*
X0050898Y0174183D01*
X0050905Y0174111D01*
X0050915Y0174040D01*
X0050929Y0173969D01*
X0050947Y0173899D01*
X0050969Y0173830D01*
X0050994Y0173762D01*
X0051022Y0173696D01*
X0051054Y0173631D01*
X0051090Y0173568D01*
X0051128Y0173507D01*
X0051170Y0173448D01*
X0051215Y0173391D01*
X0051263Y0173337D01*
X0051313Y0173285D01*
X0051366Y0173236D01*
X0051422Y0173190D01*
X0051480Y0173146D01*
X0051540Y0173106D01*
X0051602Y0173069D01*
X0051666Y0173036D01*
X0051732Y0173006D01*
X0051799Y0172979D01*
X0051868Y0172956D01*
X0051937Y0172936D01*
X0052008Y0172920D01*
X0052079Y0172908D01*
X0052151Y0172900D01*
X0058936Y0172900D01*
X0060883Y0172168D02*
X0078418Y0155132D01*
X0081419Y0156132D02*
X0081489Y0156046D01*
X0081557Y0155958D01*
X0081621Y0155867D01*
X0081682Y0155774D01*
X0081739Y0155679D01*
X0081793Y0155582D01*
X0081844Y0155483D01*
X0081891Y0155382D01*
X0081935Y0155280D01*
X0081974Y0155176D01*
X0082010Y0155071D01*
X0082043Y0154964D01*
X0082071Y0154857D01*
X0082096Y0154749D01*
X0082116Y0154639D01*
X0082133Y0154529D01*
X0082146Y0154419D01*
X0082155Y0154308D01*
X0082160Y0154197D01*
X0082161Y0154086D01*
X0082158Y0153975D01*
X0082151Y0153864D01*
X0082151Y0153900D01*
X0082151Y0153864D02*
X0082151Y0068400D01*
X0082149Y0068324D01*
X0082143Y0068248D01*
X0082134Y0068173D01*
X0082120Y0068098D01*
X0082103Y0068024D01*
X0082082Y0067951D01*
X0082058Y0067879D01*
X0082029Y0067808D01*
X0081998Y0067739D01*
X0081963Y0067672D01*
X0081924Y0067607D01*
X0081882Y0067543D01*
X0081837Y0067482D01*
X0081789Y0067423D01*
X0081738Y0067367D01*
X0081684Y0067313D01*
X0081628Y0067262D01*
X0081569Y0067214D01*
X0081508Y0067169D01*
X0081444Y0067127D01*
X0081379Y0067088D01*
X0081312Y0067053D01*
X0081243Y0067022D01*
X0081172Y0066993D01*
X0081100Y0066969D01*
X0081027Y0066948D01*
X0080953Y0066931D01*
X0080878Y0066917D01*
X0080803Y0066908D01*
X0080727Y0066902D01*
X0080651Y0066900D01*
X0080575Y0066902D01*
X0080499Y0066908D01*
X0080424Y0066917D01*
X0080349Y0066931D01*
X0080275Y0066948D01*
X0080202Y0066969D01*
X0080130Y0066993D01*
X0080059Y0067022D01*
X0079990Y0067053D01*
X0079923Y0067088D01*
X0079858Y0067127D01*
X0079794Y0067169D01*
X0079733Y0067214D01*
X0079674Y0067262D01*
X0079618Y0067313D01*
X0079564Y0067367D01*
X0079513Y0067423D01*
X0079465Y0067482D01*
X0079420Y0067543D01*
X0079378Y0067607D01*
X0079339Y0067672D01*
X0079304Y0067739D01*
X0079273Y0067808D01*
X0079244Y0067879D01*
X0079220Y0067951D01*
X0079199Y0068024D01*
X0079182Y0068098D01*
X0079168Y0068173D01*
X0079159Y0068248D01*
X0079153Y0068324D01*
X0079151Y0068400D01*
X0079151Y0153364D01*
X0079151Y0153400D01*
X0079151Y0153364D02*
X0079149Y0153462D01*
X0079143Y0153560D01*
X0079134Y0153658D01*
X0079120Y0153755D01*
X0079103Y0153852D01*
X0079082Y0153948D01*
X0079057Y0154043D01*
X0079029Y0154137D01*
X0078996Y0154229D01*
X0078961Y0154321D01*
X0078921Y0154411D01*
X0078879Y0154499D01*
X0078832Y0154586D01*
X0078783Y0154670D01*
X0078730Y0154753D01*
X0078674Y0154833D01*
X0078614Y0154912D01*
X0078552Y0154988D01*
X0078487Y0155061D01*
X0078419Y0155132D01*
X0081418Y0156132D02*
X0063504Y0173546D01*
X0060883Y0172167D02*
X0060807Y0172235D01*
X0060730Y0172301D01*
X0060649Y0172363D01*
X0060567Y0172422D01*
X0060482Y0172478D01*
X0060395Y0172531D01*
X0060306Y0172580D01*
X0060216Y0172627D01*
X0060124Y0172669D01*
X0060030Y0172709D01*
X0059935Y0172744D01*
X0059838Y0172777D01*
X0059741Y0172805D01*
X0059642Y0172830D01*
X0059543Y0172851D01*
X0059443Y0172869D01*
X0059342Y0172883D01*
X0059241Y0172892D01*
X0059140Y0172899D01*
X0059038Y0172901D01*
X0058937Y0172900D01*
X0058900Y0175650D02*
X0059058Y0175642D01*
X0059215Y0175631D01*
X0059371Y0175616D01*
X0059528Y0175597D01*
X0059683Y0175575D01*
X0059839Y0175549D01*
X0059993Y0175519D01*
X0060147Y0175485D01*
X0060300Y0175448D01*
X0060452Y0175407D01*
X0060603Y0175363D01*
X0060753Y0175315D01*
X0060901Y0175264D01*
X0061049Y0175209D01*
X0061195Y0175150D01*
X0061340Y0175088D01*
X0061483Y0175023D01*
X0061624Y0174954D01*
X0061764Y0174882D01*
X0061902Y0174806D01*
X0062039Y0174728D01*
X0062173Y0174646D01*
X0062305Y0174560D01*
X0062436Y0174472D01*
X0062564Y0174381D01*
X0062690Y0174287D01*
X0062814Y0174189D01*
X0062935Y0174089D01*
X0063054Y0173986D01*
X0063170Y0173880D01*
X0063284Y0173771D01*
X0063395Y0173660D01*
X0063504Y0173546D01*
X0033651Y0137900D02*
X0025686Y0137900D01*
X0023418Y0137168D02*
X0021004Y0134754D01*
X0022383Y0132132D02*
X0022312Y0132064D01*
X0022239Y0131999D01*
X0022163Y0131937D01*
X0022084Y0131877D01*
X0022004Y0131821D01*
X0021921Y0131768D01*
X0021837Y0131719D01*
X0021750Y0131672D01*
X0021662Y0131630D01*
X0021572Y0131590D01*
X0021480Y0131555D01*
X0021388Y0131522D01*
X0021294Y0131494D01*
X0021199Y0131469D01*
X0021103Y0131448D01*
X0021006Y0131431D01*
X0020909Y0131417D01*
X0020811Y0131408D01*
X0020713Y0131402D01*
X0020615Y0131400D01*
X0012151Y0131400D01*
X0010651Y0132900D02*
X0010653Y0132976D01*
X0010659Y0133052D01*
X0010668Y0133127D01*
X0010682Y0133202D01*
X0010699Y0133276D01*
X0010720Y0133349D01*
X0010744Y0133421D01*
X0010773Y0133492D01*
X0010804Y0133561D01*
X0010839Y0133628D01*
X0010878Y0133693D01*
X0010920Y0133757D01*
X0010965Y0133818D01*
X0011013Y0133877D01*
X0011064Y0133933D01*
X0011118Y0133987D01*
X0011174Y0134038D01*
X0011233Y0134086D01*
X0011294Y0134131D01*
X0011358Y0134173D01*
X0011423Y0134212D01*
X0011490Y0134247D01*
X0011559Y0134278D01*
X0011630Y0134307D01*
X0011702Y0134331D01*
X0011775Y0134352D01*
X0011849Y0134369D01*
X0011924Y0134383D01*
X0011999Y0134392D01*
X0012075Y0134398D01*
X0012151Y0134400D01*
X0019651Y0134400D01*
X0019735Y0134391D01*
X0019819Y0134385D01*
X0019904Y0134383D01*
X0019988Y0134385D01*
X0020072Y0134391D01*
X0020156Y0134401D01*
X0020239Y0134415D01*
X0020322Y0134432D01*
X0020404Y0134453D01*
X0020484Y0134479D01*
X0020564Y0134507D01*
X0020642Y0134540D01*
X0020718Y0134576D01*
X0020793Y0134615D01*
X0020865Y0134658D01*
X0020936Y0134704D01*
X0021005Y0134754D01*
X0022383Y0132132D02*
X0024418Y0134168D01*
X0023418Y0137168D02*
X0023500Y0137235D01*
X0023585Y0137300D01*
X0023671Y0137362D01*
X0023760Y0137420D01*
X0023850Y0137476D01*
X0023943Y0137529D01*
X0024037Y0137578D01*
X0024133Y0137624D01*
X0024230Y0137667D01*
X0024329Y0137706D01*
X0024429Y0137743D01*
X0024530Y0137775D01*
X0024632Y0137804D01*
X0024735Y0137830D01*
X0024839Y0137852D01*
X0024944Y0137871D01*
X0025049Y0137886D01*
X0025155Y0137897D01*
X0025261Y0137905D01*
X0025367Y0137909D01*
X0025474Y0137910D01*
X0025580Y0137907D01*
X0025686Y0137900D01*
X0026186Y0134900D02*
X0033651Y0134900D01*
X0035151Y0136400D02*
X0035149Y0136476D01*
X0035143Y0136552D01*
X0035134Y0136627D01*
X0035120Y0136702D01*
X0035103Y0136776D01*
X0035082Y0136849D01*
X0035058Y0136921D01*
X0035029Y0136992D01*
X0034998Y0137061D01*
X0034963Y0137128D01*
X0034924Y0137193D01*
X0034882Y0137257D01*
X0034837Y0137318D01*
X0034789Y0137377D01*
X0034738Y0137433D01*
X0034684Y0137487D01*
X0034628Y0137538D01*
X0034569Y0137586D01*
X0034508Y0137631D01*
X0034444Y0137673D01*
X0034379Y0137712D01*
X0034312Y0137747D01*
X0034243Y0137778D01*
X0034172Y0137807D01*
X0034100Y0137831D01*
X0034027Y0137852D01*
X0033953Y0137869D01*
X0033878Y0137883D01*
X0033803Y0137892D01*
X0033727Y0137898D01*
X0033651Y0137900D01*
X0035151Y0136400D02*
X0035149Y0136324D01*
X0035143Y0136248D01*
X0035134Y0136173D01*
X0035120Y0136098D01*
X0035103Y0136024D01*
X0035082Y0135951D01*
X0035058Y0135879D01*
X0035029Y0135808D01*
X0034998Y0135739D01*
X0034963Y0135672D01*
X0034924Y0135607D01*
X0034882Y0135543D01*
X0034837Y0135482D01*
X0034789Y0135423D01*
X0034738Y0135367D01*
X0034684Y0135313D01*
X0034628Y0135262D01*
X0034569Y0135214D01*
X0034508Y0135169D01*
X0034444Y0135127D01*
X0034379Y0135088D01*
X0034312Y0135053D01*
X0034243Y0135022D01*
X0034172Y0134993D01*
X0034100Y0134969D01*
X0034027Y0134948D01*
X0033953Y0134931D01*
X0033878Y0134917D01*
X0033803Y0134908D01*
X0033727Y0134902D01*
X0033651Y0134900D01*
X0026186Y0134900D02*
X0026088Y0134898D01*
X0025990Y0134892D01*
X0025892Y0134883D01*
X0025795Y0134869D01*
X0025698Y0134852D01*
X0025602Y0134831D01*
X0025507Y0134806D01*
X0025413Y0134778D01*
X0025321Y0134745D01*
X0025229Y0134710D01*
X0025139Y0134670D01*
X0025051Y0134628D01*
X0024964Y0134581D01*
X0024880Y0134532D01*
X0024797Y0134479D01*
X0024717Y0134423D01*
X0024638Y0134363D01*
X0024562Y0134301D01*
X0024489Y0134236D01*
X0024418Y0134168D01*
X0012151Y0131400D02*
X0012075Y0131402D01*
X0011999Y0131408D01*
X0011924Y0131417D01*
X0011849Y0131431D01*
X0011775Y0131448D01*
X0011702Y0131469D01*
X0011630Y0131493D01*
X0011559Y0131522D01*
X0011490Y0131553D01*
X0011423Y0131588D01*
X0011358Y0131627D01*
X0011294Y0131669D01*
X0011233Y0131714D01*
X0011174Y0131762D01*
X0011118Y0131813D01*
X0011064Y0131867D01*
X0011013Y0131923D01*
X0010965Y0131982D01*
X0010920Y0132043D01*
X0010878Y0132107D01*
X0010839Y0132172D01*
X0010804Y0132239D01*
X0010773Y0132308D01*
X0010744Y0132379D01*
X0010720Y0132451D01*
X0010699Y0132524D01*
X0010682Y0132598D01*
X0010668Y0132673D01*
X0010659Y0132748D01*
X0010653Y0132824D01*
X0010651Y0132900D01*
X0011651Y0091900D02*
X0060151Y0091900D01*
X0060227Y0091898D01*
X0060303Y0091892D01*
X0060378Y0091883D01*
X0060453Y0091869D01*
X0060527Y0091852D01*
X0060600Y0091831D01*
X0060672Y0091807D01*
X0060743Y0091778D01*
X0060812Y0091747D01*
X0060879Y0091712D01*
X0060944Y0091673D01*
X0061008Y0091631D01*
X0061069Y0091586D01*
X0061128Y0091538D01*
X0061184Y0091487D01*
X0061238Y0091433D01*
X0061289Y0091377D01*
X0061337Y0091318D01*
X0061382Y0091257D01*
X0061424Y0091193D01*
X0061463Y0091128D01*
X0061498Y0091061D01*
X0061529Y0090992D01*
X0061558Y0090921D01*
X0061582Y0090849D01*
X0061603Y0090776D01*
X0061620Y0090702D01*
X0061634Y0090627D01*
X0061643Y0090552D01*
X0061649Y0090476D01*
X0061651Y0090400D01*
X0061649Y0090324D01*
X0061643Y0090248D01*
X0061634Y0090173D01*
X0061620Y0090098D01*
X0061603Y0090024D01*
X0061582Y0089951D01*
X0061558Y0089879D01*
X0061529Y0089808D01*
X0061498Y0089739D01*
X0061463Y0089672D01*
X0061424Y0089607D01*
X0061382Y0089543D01*
X0061337Y0089482D01*
X0061289Y0089423D01*
X0061238Y0089367D01*
X0061184Y0089313D01*
X0061128Y0089262D01*
X0061069Y0089214D01*
X0061008Y0089169D01*
X0060944Y0089127D01*
X0060879Y0089088D01*
X0060812Y0089053D01*
X0060743Y0089022D01*
X0060672Y0088993D01*
X0060600Y0088969D01*
X0060527Y0088948D01*
X0060453Y0088931D01*
X0060378Y0088917D01*
X0060303Y0088908D01*
X0060227Y0088902D01*
X0060151Y0088900D01*
X0060115Y0088900D02*
X0011651Y0088900D01*
X0010151Y0090400D02*
X0010153Y0090476D01*
X0010159Y0090552D01*
X0010168Y0090627D01*
X0010182Y0090702D01*
X0010199Y0090776D01*
X0010220Y0090849D01*
X0010244Y0090921D01*
X0010273Y0090992D01*
X0010304Y0091061D01*
X0010339Y0091128D01*
X0010378Y0091193D01*
X0010420Y0091257D01*
X0010465Y0091318D01*
X0010513Y0091377D01*
X0010564Y0091433D01*
X0010618Y0091487D01*
X0010674Y0091538D01*
X0010733Y0091586D01*
X0010794Y0091631D01*
X0010858Y0091673D01*
X0010923Y0091712D01*
X0010990Y0091747D01*
X0011059Y0091778D01*
X0011130Y0091807D01*
X0011202Y0091831D01*
X0011275Y0091852D01*
X0011349Y0091869D01*
X0011424Y0091883D01*
X0011499Y0091892D01*
X0011575Y0091898D01*
X0011651Y0091900D01*
X0010151Y0090400D02*
X0010153Y0090324D01*
X0010159Y0090248D01*
X0010168Y0090173D01*
X0010182Y0090098D01*
X0010199Y0090024D01*
X0010220Y0089951D01*
X0010244Y0089879D01*
X0010273Y0089808D01*
X0010304Y0089739D01*
X0010339Y0089672D01*
X0010378Y0089607D01*
X0010420Y0089543D01*
X0010465Y0089482D01*
X0010513Y0089423D01*
X0010564Y0089367D01*
X0010618Y0089313D01*
X0010674Y0089262D01*
X0010733Y0089214D01*
X0010794Y0089169D01*
X0010858Y0089127D01*
X0010923Y0089088D01*
X0010990Y0089053D01*
X0011059Y0089022D01*
X0011130Y0088993D01*
X0011202Y0088969D01*
X0011275Y0088948D01*
X0011349Y0088931D01*
X0011424Y0088917D01*
X0011499Y0088908D01*
X0011575Y0088902D01*
X0011651Y0088900D01*
X0011651Y0071900D02*
X0032151Y0071900D01*
X0032224Y0071874D01*
X0032296Y0071844D01*
X0032366Y0071810D01*
X0032434Y0071774D01*
X0032500Y0071733D01*
X0032565Y0071690D01*
X0032627Y0071644D01*
X0032687Y0071594D01*
X0032744Y0071542D01*
X0032799Y0071487D01*
X0032851Y0071429D01*
X0032900Y0071369D01*
X0032946Y0071307D01*
X0032989Y0071242D01*
X0033029Y0071176D01*
X0033065Y0071107D01*
X0033098Y0071037D01*
X0033128Y0070965D01*
X0033154Y0070892D01*
X0033176Y0070818D01*
X0033195Y0070742D01*
X0033209Y0070666D01*
X0033221Y0070589D01*
X0033228Y0070512D01*
X0033232Y0070435D01*
X0033231Y0070357D01*
X0033227Y0070279D01*
X0033220Y0070202D01*
X0033208Y0070126D01*
X0033193Y0070049D01*
X0033174Y0069974D01*
X0033151Y0069900D01*
X0033136Y0069833D01*
X0033117Y0069766D01*
X0033094Y0069701D01*
X0033068Y0069637D01*
X0033039Y0069575D01*
X0033006Y0069514D01*
X0032970Y0069455D01*
X0032931Y0069398D01*
X0032888Y0069343D01*
X0032843Y0069291D01*
X0032795Y0069241D01*
X0032745Y0069194D01*
X0032692Y0069150D01*
X0032637Y0069109D01*
X0032579Y0069070D01*
X0032520Y0069035D01*
X0032459Y0069003D01*
X0032396Y0068975D01*
X0032331Y0068950D01*
X0032266Y0068928D01*
X0032199Y0068910D01*
X0032131Y0068896D01*
X0032063Y0068885D01*
X0031995Y0068878D01*
X0031926Y0068875D01*
X0031857Y0068876D01*
X0031788Y0068880D01*
X0031719Y0068888D01*
X0031651Y0068900D01*
X0011651Y0068900D01*
X0010151Y0070400D02*
X0010153Y0070476D01*
X0010159Y0070552D01*
X0010168Y0070627D01*
X0010182Y0070702D01*
X0010199Y0070776D01*
X0010220Y0070849D01*
X0010244Y0070921D01*
X0010273Y0070992D01*
X0010304Y0071061D01*
X0010339Y0071128D01*
X0010378Y0071193D01*
X0010420Y0071257D01*
X0010465Y0071318D01*
X0010513Y0071377D01*
X0010564Y0071433D01*
X0010618Y0071487D01*
X0010674Y0071538D01*
X0010733Y0071586D01*
X0010794Y0071631D01*
X0010858Y0071673D01*
X0010923Y0071712D01*
X0010990Y0071747D01*
X0011059Y0071778D01*
X0011130Y0071807D01*
X0011202Y0071831D01*
X0011275Y0071852D01*
X0011349Y0071869D01*
X0011424Y0071883D01*
X0011499Y0071892D01*
X0011575Y0071898D01*
X0011651Y0071900D01*
X0010151Y0070400D02*
X0010153Y0070324D01*
X0010159Y0070248D01*
X0010168Y0070173D01*
X0010182Y0070098D01*
X0010199Y0070024D01*
X0010220Y0069951D01*
X0010244Y0069879D01*
X0010273Y0069808D01*
X0010304Y0069739D01*
X0010339Y0069672D01*
X0010378Y0069607D01*
X0010420Y0069543D01*
X0010465Y0069482D01*
X0010513Y0069423D01*
X0010564Y0069367D01*
X0010618Y0069313D01*
X0010674Y0069262D01*
X0010733Y0069214D01*
X0010794Y0069169D01*
X0010858Y0069127D01*
X0010923Y0069088D01*
X0010990Y0069053D01*
X0011059Y0069022D01*
X0011130Y0068993D01*
X0011202Y0068969D01*
X0011275Y0068948D01*
X0011349Y0068931D01*
X0011424Y0068917D01*
X0011499Y0068908D01*
X0011575Y0068902D01*
X0011651Y0068900D01*
X0079151Y0039400D02*
X0079151Y0027400D01*
X0079138Y0027298D01*
X0079130Y0027196D01*
X0079125Y0027094D01*
X0079124Y0026991D01*
X0079127Y0026889D01*
X0079135Y0026787D01*
X0079146Y0026685D01*
X0079161Y0026584D01*
X0079180Y0026483D01*
X0079203Y0026383D01*
X0079230Y0026284D01*
X0079260Y0026186D01*
X0079294Y0026090D01*
X0079332Y0025995D01*
X0079374Y0025901D01*
X0079419Y0025809D01*
X0079468Y0025719D01*
X0079520Y0025631D01*
X0079576Y0025545D01*
X0079634Y0025461D01*
X0079696Y0025379D01*
X0079762Y0025300D01*
X0079830Y0025224D01*
X0079901Y0025150D01*
X0079975Y0025079D01*
X0080051Y0025011D01*
X0080130Y0024945D01*
X0080212Y0024883D01*
X0080296Y0024825D01*
X0080382Y0024769D01*
X0080470Y0024717D01*
X0080560Y0024668D01*
X0080652Y0024623D01*
X0080746Y0024581D01*
X0080841Y0024543D01*
X0080937Y0024509D01*
X0081035Y0024479D01*
X0081134Y0024452D01*
X0081234Y0024429D01*
X0081335Y0024410D01*
X0081436Y0024395D01*
X0081538Y0024384D01*
X0081640Y0024376D01*
X0081742Y0024373D01*
X0081845Y0024374D01*
X0081947Y0024379D01*
X0082049Y0024387D01*
X0082151Y0024400D01*
X0096651Y0024400D01*
X0096738Y0024398D01*
X0096825Y0024392D01*
X0096912Y0024383D01*
X0096998Y0024370D01*
X0097084Y0024353D01*
X0097169Y0024332D01*
X0097252Y0024307D01*
X0097335Y0024279D01*
X0097416Y0024248D01*
X0097496Y0024213D01*
X0097574Y0024174D01*
X0097651Y0024132D01*
X0097726Y0024087D01*
X0097798Y0024038D01*
X0097869Y0023987D01*
X0097937Y0023932D01*
X0098002Y0023875D01*
X0098065Y0023814D01*
X0098126Y0023751D01*
X0098183Y0023686D01*
X0098238Y0023618D01*
X0098289Y0023547D01*
X0098338Y0023475D01*
X0098383Y0023400D01*
X0098425Y0023323D01*
X0098464Y0023245D01*
X0098499Y0023165D01*
X0098530Y0023084D01*
X0098558Y0023001D01*
X0098583Y0022918D01*
X0098604Y0022833D01*
X0098621Y0022747D01*
X0098634Y0022661D01*
X0098643Y0022574D01*
X0098649Y0022487D01*
X0098651Y0022400D01*
X0098651Y0011900D01*
X0098653Y0011824D01*
X0098659Y0011748D01*
X0098668Y0011673D01*
X0098682Y0011598D01*
X0098699Y0011524D01*
X0098720Y0011451D01*
X0098744Y0011379D01*
X0098773Y0011308D01*
X0098804Y0011239D01*
X0098839Y0011172D01*
X0098878Y0011107D01*
X0098920Y0011043D01*
X0098965Y0010982D01*
X0099013Y0010923D01*
X0099064Y0010867D01*
X0099118Y0010813D01*
X0099174Y0010762D01*
X0099233Y0010714D01*
X0099294Y0010669D01*
X0099358Y0010627D01*
X0099423Y0010588D01*
X0099490Y0010553D01*
X0099559Y0010522D01*
X0099630Y0010493D01*
X0099702Y0010469D01*
X0099775Y0010448D01*
X0099849Y0010431D01*
X0099924Y0010417D01*
X0099999Y0010408D01*
X0100075Y0010402D01*
X0100151Y0010400D01*
X0100227Y0010402D01*
X0100303Y0010408D01*
X0100378Y0010417D01*
X0100453Y0010431D01*
X0100527Y0010448D01*
X0100600Y0010469D01*
X0100672Y0010493D01*
X0100743Y0010522D01*
X0100812Y0010553D01*
X0100879Y0010588D01*
X0100944Y0010627D01*
X0101008Y0010669D01*
X0101069Y0010714D01*
X0101128Y0010762D01*
X0101184Y0010813D01*
X0101238Y0010867D01*
X0101289Y0010923D01*
X0101337Y0010982D01*
X0101382Y0011043D01*
X0101424Y0011107D01*
X0101463Y0011172D01*
X0101498Y0011239D01*
X0101529Y0011308D01*
X0101558Y0011379D01*
X0101582Y0011451D01*
X0101603Y0011524D01*
X0101620Y0011598D01*
X0101634Y0011673D01*
X0101643Y0011748D01*
X0101649Y0011824D01*
X0101651Y0011900D01*
X0101651Y0025400D01*
X0101630Y0025498D01*
X0101605Y0025595D01*
X0101575Y0025691D01*
X0101542Y0025785D01*
X0101506Y0025878D01*
X0101466Y0025970D01*
X0101422Y0026060D01*
X0101375Y0026148D01*
X0101324Y0026235D01*
X0101270Y0026319D01*
X0101212Y0026401D01*
X0101152Y0026481D01*
X0101088Y0026558D01*
X0101022Y0026633D01*
X0100952Y0026705D01*
X0100880Y0026774D01*
X0100805Y0026841D01*
X0100728Y0026904D01*
X0100648Y0026965D01*
X0100565Y0027022D01*
X0100481Y0027076D01*
X0100395Y0027126D01*
X0100306Y0027173D01*
X0100216Y0027217D01*
X0100124Y0027257D01*
X0100031Y0027293D01*
X0099936Y0027326D01*
X0099841Y0027355D01*
X0099744Y0027380D01*
X0099646Y0027402D01*
X0099547Y0027419D01*
X0099448Y0027433D01*
X0099348Y0027442D01*
X0099248Y0027448D01*
X0099148Y0027450D01*
X0099048Y0027448D01*
X0098948Y0027442D01*
X0098849Y0027432D01*
X0098749Y0027418D01*
X0098651Y0027400D01*
X0084151Y0027400D01*
X0084064Y0027402D01*
X0083977Y0027408D01*
X0083890Y0027417D01*
X0083804Y0027430D01*
X0083718Y0027447D01*
X0083633Y0027468D01*
X0083550Y0027493D01*
X0083467Y0027521D01*
X0083386Y0027552D01*
X0083306Y0027587D01*
X0083228Y0027626D01*
X0083151Y0027668D01*
X0083076Y0027713D01*
X0083004Y0027762D01*
X0082933Y0027813D01*
X0082865Y0027868D01*
X0082800Y0027925D01*
X0082737Y0027986D01*
X0082676Y0028049D01*
X0082619Y0028114D01*
X0082564Y0028182D01*
X0082513Y0028253D01*
X0082464Y0028325D01*
X0082419Y0028400D01*
X0082377Y0028477D01*
X0082338Y0028555D01*
X0082303Y0028635D01*
X0082272Y0028716D01*
X0082244Y0028799D01*
X0082219Y0028882D01*
X0082198Y0028967D01*
X0082181Y0029053D01*
X0082168Y0029139D01*
X0082159Y0029226D01*
X0082153Y0029313D01*
X0082151Y0029400D01*
X0082151Y0039400D01*
X0082149Y0039476D01*
X0082143Y0039552D01*
X0082134Y0039627D01*
X0082120Y0039702D01*
X0082103Y0039776D01*
X0082082Y0039849D01*
X0082058Y0039921D01*
X0082029Y0039992D01*
X0081998Y0040061D01*
X0081963Y0040128D01*
X0081924Y0040193D01*
X0081882Y0040257D01*
X0081837Y0040318D01*
X0081789Y0040377D01*
X0081738Y0040433D01*
X0081684Y0040487D01*
X0081628Y0040538D01*
X0081569Y0040586D01*
X0081508Y0040631D01*
X0081444Y0040673D01*
X0081379Y0040712D01*
X0081312Y0040747D01*
X0081243Y0040778D01*
X0081172Y0040807D01*
X0081100Y0040831D01*
X0081027Y0040852D01*
X0080953Y0040869D01*
X0080878Y0040883D01*
X0080803Y0040892D01*
X0080727Y0040898D01*
X0080651Y0040900D01*
X0080575Y0040898D01*
X0080499Y0040892D01*
X0080424Y0040883D01*
X0080349Y0040869D01*
X0080275Y0040852D01*
X0080202Y0040831D01*
X0080130Y0040807D01*
X0080059Y0040778D01*
X0079990Y0040747D01*
X0079923Y0040712D01*
X0079858Y0040673D01*
X0079794Y0040631D01*
X0079733Y0040586D01*
X0079674Y0040538D01*
X0079618Y0040487D01*
X0079564Y0040433D01*
X0079513Y0040377D01*
X0079465Y0040318D01*
X0079420Y0040257D01*
X0079378Y0040193D01*
X0079339Y0040128D01*
X0079304Y0040061D01*
X0079273Y0039992D01*
X0079244Y0039921D01*
X0079220Y0039849D01*
X0079199Y0039776D01*
X0079182Y0039702D01*
X0079168Y0039627D01*
X0079159Y0039552D01*
X0079153Y0039476D01*
X0079151Y0039400D01*
D12*
X0076651Y0016900D02*
X0092651Y0016900D01*
X0076651Y0016900D02*
X0026151Y0060400D01*
X0016651Y0060400D01*
X0016651Y0040900D02*
X0046151Y0016900D01*
X0069151Y0073900D02*
X0061651Y0080400D01*
X0016651Y0080400D01*
X0016651Y0100900D02*
X0016651Y0120400D01*
X0046151Y0213587D02*
X0016651Y0237587D01*
X0016651Y0257087D02*
X0026151Y0257087D01*
X0076651Y0213587D01*
X0092651Y0213587D01*
X0069151Y0270588D02*
X0061651Y0277088D01*
X0016651Y0277088D01*
X0016651Y0297588D02*
X0016651Y0317088D01*
X0213213Y0317088D02*
X0213213Y0297588D01*
X0213213Y0277088D02*
X0258213Y0277088D01*
X0265713Y0270588D01*
X0222713Y0257087D02*
X0273213Y0213587D01*
X0289213Y0213587D01*
X0242713Y0213587D02*
X0213213Y0237587D01*
X0213213Y0257087D02*
X0222713Y0257087D01*
X0213213Y0120400D02*
X0213213Y0100900D01*
X0213213Y0080400D02*
X0258213Y0080400D01*
X0265713Y0073900D01*
X0222713Y0060400D02*
X0273213Y0016900D01*
X0289213Y0016900D01*
X0242713Y0016900D02*
X0213213Y0040900D01*
X0213213Y0060400D02*
X0222713Y0060400D01*
D13*
X0172351Y0130300D03*
X0172351Y0139400D03*
X0172351Y0148500D03*
X0172351Y0326988D03*
X0172351Y0336088D03*
X0172351Y0345187D03*
X0368913Y0345187D03*
X0368913Y0336088D03*
X0368913Y0326988D03*
X0368913Y0148500D03*
X0368913Y0139400D03*
X0368913Y0130300D03*
D14*
X0344512Y0139400D03*
X0147950Y0139400D03*
X0147950Y0336088D03*
X0344512Y0336088D03*
D15*
X0383463Y0334182D03*
X0383463Y0345993D03*
X0186901Y0345993D03*
X0186901Y0334182D03*
X0186901Y0149306D03*
X0186901Y0137494D03*
X0383463Y0137494D03*
X0383463Y0149306D03*
D16*
X0370225Y0118650D03*
X0359201Y0118650D03*
X0173662Y0118650D03*
X0162639Y0118650D03*
X0162639Y0315338D03*
X0173662Y0315338D03*
X0359201Y0315338D03*
X0370225Y0315338D03*
D17*
X0371756Y0305088D03*
X0364670Y0305088D03*
X0312256Y0301588D03*
X0305170Y0301588D03*
X0352170Y0371087D03*
X0359256Y0371087D03*
X0292256Y0232087D03*
X0285170Y0232087D03*
X0352170Y0174400D03*
X0359256Y0174400D03*
X0364670Y0108400D03*
X0371756Y0108400D03*
X0312256Y0104900D03*
X0305170Y0104900D03*
X0292256Y0035400D03*
X0285170Y0035400D03*
X0175194Y0108400D03*
X0168107Y0108400D03*
X0115694Y0104900D03*
X0108607Y0104900D03*
X0095694Y0035400D03*
X0088607Y0035400D03*
X0155607Y0174400D03*
X0162694Y0174400D03*
X0095694Y0232087D03*
X0088607Y0232087D03*
X0108607Y0301588D03*
X0115694Y0301588D03*
X0168107Y0305088D03*
X0175194Y0305088D03*
X0162694Y0371087D03*
X0155607Y0371087D03*
D18*
X0156836Y0289871D02*
X0156836Y0284871D01*
X0164710Y0284871D02*
X0164710Y0289871D01*
X0148962Y0289871D02*
X0148962Y0284871D01*
X0141481Y0284871D02*
X0141481Y0289871D01*
X0133214Y0289871D02*
X0133214Y0284871D01*
X0125340Y0284871D02*
X0125340Y0289871D01*
X0117859Y0289871D02*
X0117859Y0284871D01*
X0109592Y0284871D02*
X0109592Y0289871D01*
X0109985Y0230028D02*
X0109985Y0225028D01*
X0117859Y0225028D02*
X0117859Y0230028D01*
X0125733Y0230028D02*
X0125733Y0225028D01*
X0133607Y0225028D02*
X0133607Y0230028D01*
X0141088Y0230028D02*
X0141088Y0225028D01*
X0149355Y0225028D02*
X0149355Y0230028D01*
X0157229Y0230028D02*
X0157229Y0225028D01*
X0165103Y0225028D02*
X0165103Y0230028D01*
X0164710Y0093183D02*
X0164710Y0088183D01*
X0156836Y0088183D02*
X0156836Y0093183D01*
X0148962Y0093183D02*
X0148962Y0088183D01*
X0141481Y0088183D02*
X0141481Y0093183D01*
X0133214Y0093183D02*
X0133214Y0088183D01*
X0125340Y0088183D02*
X0125340Y0093183D01*
X0117859Y0093183D02*
X0117859Y0088183D01*
X0109592Y0088183D02*
X0109592Y0093183D01*
X0109985Y0033341D02*
X0109985Y0028341D01*
X0117859Y0028341D02*
X0117859Y0033341D01*
X0125733Y0033341D02*
X0125733Y0028341D01*
X0133607Y0028341D02*
X0133607Y0033341D01*
X0141088Y0033341D02*
X0141088Y0028341D01*
X0149355Y0028341D02*
X0149355Y0033341D01*
X0157229Y0033341D02*
X0157229Y0028341D01*
X0165103Y0028341D02*
X0165103Y0033341D01*
X0306548Y0033341D02*
X0306548Y0028341D01*
X0314422Y0028341D02*
X0314422Y0033341D01*
X0322296Y0033341D02*
X0322296Y0028341D01*
X0330170Y0028341D02*
X0330170Y0033341D01*
X0337650Y0033341D02*
X0337650Y0028341D01*
X0345918Y0028341D02*
X0345918Y0033341D01*
X0353792Y0033341D02*
X0353792Y0028341D01*
X0361666Y0028341D02*
X0361666Y0033341D01*
X0361272Y0088183D02*
X0361272Y0093183D01*
X0353398Y0093183D02*
X0353398Y0088183D01*
X0345524Y0088183D02*
X0345524Y0093183D01*
X0338044Y0093183D02*
X0338044Y0088183D01*
X0329776Y0088183D02*
X0329776Y0093183D01*
X0321902Y0093183D02*
X0321902Y0088183D01*
X0314422Y0088183D02*
X0314422Y0093183D01*
X0306154Y0093183D02*
X0306154Y0088183D01*
X0306548Y0225028D02*
X0306548Y0230028D01*
X0314422Y0230028D02*
X0314422Y0225028D01*
X0322296Y0225028D02*
X0322296Y0230028D01*
X0330170Y0230028D02*
X0330170Y0225028D01*
X0337650Y0225028D02*
X0337650Y0230028D01*
X0345918Y0230028D02*
X0345918Y0225028D01*
X0353792Y0225028D02*
X0353792Y0230028D01*
X0361666Y0230028D02*
X0361666Y0225028D01*
X0361272Y0284871D02*
X0361272Y0289871D01*
X0353398Y0289871D02*
X0353398Y0284871D01*
X0345524Y0284871D02*
X0345524Y0289871D01*
X0338044Y0289871D02*
X0338044Y0284871D01*
X0329776Y0284871D02*
X0329776Y0289871D01*
X0321902Y0289871D02*
X0321902Y0284871D01*
X0314422Y0284871D02*
X0314422Y0289871D01*
X0306154Y0289871D02*
X0306154Y0284871D01*
D19*
X0288772Y0263131D03*
X0265642Y0270808D03*
X0242512Y0263131D03*
X0242512Y0213721D03*
X0288772Y0213721D03*
X0265642Y0074120D03*
X0288772Y0066443D03*
X0242512Y0066443D03*
X0242512Y0017034D03*
X0288772Y0017034D03*
X0092210Y0017034D03*
X0045950Y0017034D03*
X0045950Y0066443D03*
X0069080Y0074120D03*
X0092210Y0066443D03*
X0092210Y0213721D03*
X0045950Y0213721D03*
X0045950Y0263131D03*
X0069080Y0270808D03*
X0092210Y0263131D03*
D20*
X0071324Y0317776D03*
X0071324Y0337462D03*
X0187072Y0357934D03*
X0187072Y0297304D03*
X0267886Y0317776D03*
X0267886Y0337462D03*
X0383634Y0357934D03*
X0383634Y0297304D03*
X0383634Y0161246D03*
X0383634Y0100617D03*
X0267886Y0121089D03*
X0267886Y0140774D03*
X0187072Y0161246D03*
X0187072Y0100617D03*
X0071324Y0121089D03*
X0071324Y0140774D03*
D21*
X0051029Y0148900D03*
X0051151Y0163400D03*
X0065151Y0184900D03*
X0075151Y0184900D03*
X0085151Y0184900D03*
X0095151Y0184900D03*
X0105151Y0184900D03*
X0115151Y0184900D03*
X0125151Y0184900D03*
X0135151Y0184900D03*
X0145151Y0184900D03*
X0155151Y0184900D03*
X0165151Y0184900D03*
X0160151Y0212587D03*
X0150151Y0212587D03*
X0140151Y0212587D03*
X0130151Y0212587D03*
X0120151Y0212587D03*
X0110151Y0212587D03*
X0207713Y0163400D03*
X0207592Y0148900D03*
X0247592Y0148900D03*
X0247713Y0163400D03*
X0261713Y0184900D03*
X0271713Y0184900D03*
X0281713Y0184900D03*
X0291713Y0184900D03*
X0301713Y0184900D03*
X0311713Y0184900D03*
X0321713Y0184900D03*
X0331713Y0184900D03*
X0341713Y0184900D03*
X0351713Y0184900D03*
X0361713Y0184900D03*
X0356713Y0212587D03*
X0346713Y0212587D03*
X0336713Y0212587D03*
X0326713Y0212587D03*
X0316713Y0212587D03*
X0306713Y0212587D03*
X0247592Y0345587D03*
X0247713Y0360087D03*
X0261713Y0381587D03*
X0271713Y0381587D03*
X0281713Y0381587D03*
X0291713Y0381587D03*
X0301713Y0381587D03*
X0311713Y0381587D03*
X0321713Y0381587D03*
X0331713Y0381587D03*
X0341713Y0381587D03*
X0351713Y0381587D03*
X0361713Y0381587D03*
X0207713Y0360087D03*
X0207592Y0345587D03*
X0165151Y0381587D03*
X0155151Y0381587D03*
X0145151Y0381587D03*
X0135151Y0381587D03*
X0125151Y0381587D03*
X0115151Y0381587D03*
X0105151Y0381587D03*
X0095151Y0381587D03*
X0085151Y0381587D03*
X0075151Y0381587D03*
X0065151Y0381587D03*
X0051151Y0360087D03*
X0051029Y0345587D03*
X0011029Y0345587D03*
X0011151Y0360087D03*
X0011151Y0163400D03*
X0011029Y0148900D03*
X0110151Y0015900D03*
X0120151Y0015900D03*
X0130151Y0015900D03*
X0140151Y0015900D03*
X0150151Y0015900D03*
X0160151Y0015900D03*
X0306713Y0015900D03*
X0316713Y0015900D03*
X0326713Y0015900D03*
X0336713Y0015900D03*
X0346713Y0015900D03*
X0356713Y0015900D03*
D22*
X0292453Y0044069D03*
X0284973Y0044069D03*
X0288713Y0052731D03*
X0304973Y0114069D03*
X0312453Y0114069D03*
X0308713Y0122731D03*
X0292453Y0240757D03*
X0284973Y0240757D03*
X0288713Y0249418D03*
X0304973Y0310757D03*
X0312453Y0310757D03*
X0308713Y0319418D03*
X0115891Y0310757D03*
X0108411Y0310757D03*
X0112151Y0319418D03*
X0092151Y0249418D03*
X0095891Y0240757D03*
X0088411Y0240757D03*
X0112151Y0122731D03*
X0115891Y0114069D03*
X0108411Y0114069D03*
X0092151Y0052731D03*
X0095891Y0044069D03*
X0088411Y0044069D03*
D23*
X0125401Y0101357D03*
X0125401Y0108443D03*
X0112151Y0130357D03*
X0112151Y0137443D03*
X0125401Y0298044D03*
X0125401Y0305131D03*
X0112151Y0327044D03*
X0112151Y0334131D03*
X0308713Y0334131D03*
X0308713Y0327044D03*
X0321963Y0305131D03*
X0321963Y0298044D03*
X0308713Y0137443D03*
X0308713Y0130357D03*
X0321963Y0108443D03*
X0321963Y0101357D03*
D24*
X0272784Y0057400D03*
X0256642Y0057400D03*
X0076222Y0057400D03*
X0060080Y0057400D03*
X0060080Y0254087D03*
X0076222Y0254087D03*
X0256642Y0254087D03*
X0272784Y0254087D03*
D25*
X0240213Y0297588D02*
X0234213Y0297588D01*
X0246213Y0327588D02*
X0252213Y0327588D01*
X0055651Y0327588D02*
X0049651Y0327588D01*
X0043651Y0297588D02*
X0037651Y0297588D01*
X0049651Y0130900D02*
X0055651Y0130900D01*
X0043651Y0100900D02*
X0037651Y0100900D01*
X0234213Y0100900D02*
X0240213Y0100900D01*
X0246213Y0130900D02*
X0252213Y0130900D01*
D26*
X0213213Y0100900D03*
X0213213Y0040900D03*
X0016651Y0040900D03*
X0016651Y0100900D03*
X0016651Y0237587D03*
X0016651Y0297588D03*
X0213213Y0297588D03*
X0213213Y0237587D03*
D27*
X0213213Y0257273D03*
X0213213Y0276958D03*
X0213213Y0317273D03*
X0016651Y0317273D03*
X0016651Y0276958D03*
X0016651Y0257273D03*
X0016651Y0120585D03*
X0016651Y0080270D03*
X0016651Y0060585D03*
X0213213Y0060585D03*
X0213213Y0080270D03*
X0213213Y0120585D03*
D28*
X0186901Y0122412D03*
X0186901Y0111388D03*
X0383463Y0111388D03*
X0383463Y0122412D03*
X0383463Y0308076D03*
X0383463Y0319099D03*
X0186901Y0319099D03*
X0186901Y0308076D03*
D29*
X0174056Y0358087D03*
X0162245Y0358087D03*
X0358808Y0358087D03*
X0370619Y0358087D03*
X0370619Y0161400D03*
X0358808Y0161400D03*
X0174056Y0161400D03*
X0162245Y0161400D03*
D30*
X0184651Y0184900D03*
X0211213Y0184900D03*
X0211213Y0211587D03*
X0184651Y0211587D03*
X0014651Y0211587D03*
X0014651Y0184900D03*
X0014651Y0014900D03*
X0184651Y0014900D03*
X0211213Y0014900D03*
X0381213Y0014900D03*
X0381213Y0184900D03*
X0381213Y0211587D03*
X0381213Y0381587D03*
X0211213Y0381587D03*
X0184651Y0381587D03*
X0014651Y0381587D03*
M02*
