%
M48
M72
T01C0.01575
T02C0.01969
T03C0.03543
T04C0.03937
T05C0.04000
T06C0.04331
T07C0.05118
T08C0.12598
%
T01
X102651Y33400
X85151Y52400
X85151Y63400
X112151Y142400
X137151Y99400
X140749Y81443
X125401Y81650
X123651Y73400
X124651Y54900
X105151Y60400
X101151Y89400
X102651Y230087
X85151Y249087
X85151Y260087
X112151Y339088
X137151Y296088
X140749Y278131
X125401Y278338
X123651Y270088
X124651Y251587
X105151Y257087
X101151Y286088
X129651Y220837
X145151Y219087
X153151Y241587
X166151Y251087
X168151Y299338
X160151Y339088
X281713Y260087
X281713Y249087
X299213Y230087
X301713Y257087
X320213Y270088
X321963Y278338
X337312Y278131
X333713Y296088
X364713Y299338
X356713Y339088
X308713Y339088
X297713Y286088
X321213Y251587
X349713Y241587
X362713Y251087
X341713Y219087
X326213Y220837
X281713Y63400
X281713Y52400
X299213Y33400
X301713Y60400
X320213Y73400
X321963Y81650
X337312Y81443
X333713Y99400
X364713Y102650
X356713Y142400
X308713Y142400
X297713Y89400
X321213Y54900
X349713Y44900
X362713Y54400
X341713Y22400
X326213Y24150
X160151Y142400
X168151Y102650
X166151Y54400
X153151Y44900
X145151Y22400
X129651Y24150
T02
X115151Y20775
X115151Y217462
X311713Y217462
X311713Y20775
T03
X51151Y163400
X51029Y148900
X11029Y148900
X11151Y163400
X51151Y360087
X51029Y345587
X11029Y345587
X11151Y360087
X207713Y163400
X207592Y148900
X247592Y148900
X247713Y163400
X247713Y360087
X247592Y345587
X207592Y345587
X207713Y360087
T04
X71324Y121089
X71324Y140774
X71324Y337462
X71324Y317776
X187072Y357934
X267886Y337462
X267886Y317776
X187072Y297304
X267886Y121089
X267886Y140774
X187072Y161246
X187072Y100617
X383634Y100617
X383634Y161246
X383634Y297304
X383634Y357934
T05
X110151Y15900
X120151Y15900
X130151Y15900
X140151Y15900
X150151Y15900
X160151Y15900
X237213Y100900
X261713Y184900
X271713Y184900
X281713Y184900
X291713Y184900
X301713Y184900
X311713Y184900
X321713Y184900
X331713Y184900
X341713Y184900
X351713Y184900
X361713Y184900
X356713Y212587
X346713Y212587
X336713Y212587
X326713Y212587
X316713Y212587
X306713Y212587
X261713Y381587
X271713Y381587
X281713Y381587
X291713Y381587
X301713Y381587
X311713Y381587
X321713Y381587
X331713Y381587
X341713Y381587
X351713Y381587
X361713Y381587
X249213Y327588
X237213Y297588
X165151Y184900
X155151Y184900
X145151Y184900
X135151Y184900
X125151Y184900
X115151Y184900
X105151Y184900
X95151Y184900
X85151Y184900
X75151Y184900
X65151Y184900
X40651Y100900
X52651Y130900
X110151Y212587
X120151Y212587
X130151Y212587
X140151Y212587
X150151Y212587
X160151Y212587
X65151Y381587
X75151Y381587
X85151Y381587
X95151Y381587
X105151Y381587
X115151Y381587
X125151Y381587
X135151Y381587
X145151Y381587
X155151Y381587
X165151Y381587
X52651Y327588
X40651Y297588
X249213Y130900
X306713Y15900
X316713Y15900
X326713Y15900
X336713Y15900
X346713Y15900
X356713Y15900
T06
X45950Y17034
X92210Y17034
X92210Y66443
X69080Y74120
X45950Y66443
X92210Y213721
X45950Y213721
X45950Y263131
X69080Y270808
X92210Y263131
X242512Y213721
X288772Y213721
X265642Y270808
X242512Y263131
X288772Y263131
X265642Y74120
X242512Y66443
X288772Y66443
X288772Y17034
X242512Y17034
T07
X16651Y40900
X16651Y60585
X16651Y80270
X16651Y100900
X16651Y120585
X213213Y60585
X213213Y40900
X213213Y80270
X213213Y100900
X213213Y120585
X213213Y237587
X213213Y257273
X213213Y276958
X213213Y297588
X213213Y317273
X16651Y317273
X16651Y297588
X16651Y276958
X16651Y257273
X16651Y237587
T08
X14651Y14900
X184651Y14900
X211213Y14900
X381213Y14900
X381213Y184900
X381213Y211587
X211213Y211587
X184651Y211587
X184651Y184900
X211213Y184900
X14651Y211587
X14651Y184900
X14651Y381587
X184651Y381587
X211213Y381587
X381213Y381587
M30
